# MagicaVoxel @ Ephtracy

# group
o 

# material
mtllib Goblin-10.mtl
usemtl palette

# normals
vn -1 0 0
vn 1 0 0
vn 0 0 1
vn 0 0 -1
vn 0 -1 0
vn 0 1 0

# texcoords
vt 0.630859 0.5
vt 0.865234 0.5

# verts
v -1.3 4.4 -0.3
v -1.3 4.4 -0.4
v -1.3 4.5 -1.93715e-007
v -1.3 4.5 -0.3
v -1.3 6.4 -1.93715e-007
v -1.3 6.4 -0.4
v -1.2 4 0.0999998
v -1.2 4 -0.1
v -1.2 4 -0.4
v -1.2 4 -0.5
v -1.2 4.4 -0.3
v -1.2 4.4 -0.4
v -1.2 4.5 -1.93715e-007
v -1.2 4.5 -0.1
v -1.2 4.5 -0.3
v -1.2 6.4 -1.93715e-007
v -1.2 6.4 -0.4
v -1.2 6.5 0.0999998
v -1.2 6.5 -0.5
v -0.5 6 0.0999998
v -0.5 6 -1.93715e-007
v -0.5 6.2 -0.4
v -0.5 6.2 -0.5
v -0.5 6.4 -1.93715e-007
v -0.5 6.4 -0.4
v -0.5 6.5 0.0999998
v -0.5 6.5 -0.5
v -0.3 5.9 -0.4
v -0.3 5.9 -0.5
v -0.3 6.2 -0.4
v -0.3 6.2 -0.5
v -0.2 5.8 0.0999998
v -0.2 5.8 -1.93715e-007
v -0.2 6 0.0999998
v -0.2 6 -1.93715e-007
v -0.0999998 5.6 0.0999998
v -0.0999998 5.6 -1.93715e-007
v -0.0999998 5.7 -0.4
v -0.0999998 5.7 -0.5
v -0.0999998 5.8 0.0999998
v -0.0999998 5.8 -1.93715e-007
v -0.0999998 5.9 -0.4
v -0.0999998 5.9 -0.5
v 0.1 5.4 0.0999998
v 0.1 5.4 -1.93715e-007
v 0.1 5.6 0.0999998
v 0.1 5.6 -1.93715e-007
v 0.1 5.6 -0.4
v 0.1 5.6 -0.5
v 0.1 5.7 -0.4
v 0.1 5.7 -0.5
v 0.3 5.5 -0.4
v 0.3 5.5 -0.5
v 0.3 5.6 -0.4
v 0.3 5.6 -0.5
v 0.4 5.2 0.0999998
v 0.4 5.2 -1.93715e-007
v 0.4 5.4 0.0999998
v 0.4 5.4 -1.93715e-007
v 0.5 5 0.0999998
v 0.5 5 -1.93715e-007
v 0.5 5.2 0.0999998
v 0.5 5.2 -1.93715e-007
v 0.6 5.3 -0.4
v 0.6 5.3 -0.5
v 0.6 5.5 -0.4
v 0.6 5.5 -0.5
v 0.8 4.8 0.0999998
v 0.8 4.8 -1.93715e-007
v 0.8 5 0.0999998
v 0.8 5 -1.93715e-007
v 0.9 4.7 0.0999998
v 0.9 4.7 -1.93715e-007
v 0.9 4.8 0.0999998
v 0.9 4.8 -1.93715e-007
v 0.9 5.1 -0.4
v 0.9 5.1 -0.5
v 0.9 5.3 -0.4
v 0.9 5.3 -0.5
v 1 4.9 -0.4
v 1 4.9 -0.5
v 1 5.1 -0.4
v 1 5.1 -0.5
v 1.1 4.5 0.0999998
v 1.1 4.5 -1.93715e-007
v 1.1 4.7 0.0999998
v 1.1 4.7 -1.93715e-007
v 1.1 4.7 -0.4
v 1.1 4.7 -0.5
v 1.1 4.9 -0.4
v 1.1 4.9 -0.5
v 1.2 4 0.0999998
v 1.2 4 -0.1
v 1.2 4 -0.4
v 1.2 4 -0.5
v 1.2 4.5 0.0999998
v 1.2 4.5 -1.93715e-007
v 1.2 4.5 -0.1
v 1.2 4.5 -0.4
v 1.2 4.7 -0.4
v 1.2 4.7 -0.5
v 1.3 4.5 -1.93715e-007
v 1.3 4.5 -0.4
v 1.3 6.4 -1.93715e-007
v 1.3 6.4 -0.4
v -1.2 4 0.0999998
v -1.2 6.5 0.0999998
v -0.5 6 0.0999998
v -0.5 6.5 0.0999998
v -0.2 5.8 0.0999998
v -0.2 6 0.0999998
v -0.0999998 5.6 0.0999998
v -0.0999998 5.8 0.0999998
v 0.1 5.4 0.0999998
v 0.1 5.6 0.0999998
v 0.4 5.2 0.0999998
v 0.4 5.4 0.0999998
v 0.5 5 0.0999998
v 0.5 5.2 0.0999998
v 0.8 4.8 0.0999998
v 0.8 5 0.0999998
v 0.9 4.7 0.0999998
v 0.9 4.8 0.0999998
v 1.1 4.5 0.0999998
v 1.1 4.7 0.0999998
v 1.2 4 0.0999998
v 1.2 4.5 0.0999998
v -1.3 4.5 -1.93715e-007
v -1.3 6.4 -1.93715e-007
v -1.2 4.5 -1.93715e-007
v -1.2 6.4 -1.93715e-007
v -0.5 6 -1.93715e-007
v -0.5 6.4 -1.93715e-007
v -0.2 5.8 -1.93715e-007
v -0.2 6 -1.93715e-007
v -0.0999998 5.6 -1.93715e-007
v -0.0999998 5.8 -1.93715e-007
v 0.1 5.4 -1.93715e-007
v 0.1 5.6 -1.93715e-007
v 0.4 5.2 -1.93715e-007
v 0.4 5.4 -1.93715e-007
v 0.5 5 -1.93715e-007
v 0.5 5.2 -1.93715e-007
v 0.8 4.8 -1.93715e-007
v 0.8 5 -1.93715e-007
v 0.9 4.7 -1.93715e-007
v 0.9 4.8 -1.93715e-007
v 1.1 4.5 -1.93715e-007
v 1.1 4.7 -1.93715e-007
v 1.2 4.5 -1.93715e-007
v 1.3 4.5 -1.93715e-007
v 1.3 6.4 -1.93715e-007
v -1.3 4.4 -0.3
v -1.3 4.5 -0.3
v -1.2 4.4 -0.3
v -1.2 4.5 -0.3
v -1.3 4.4 -0.4
v -1.3 6.4 -0.4
v -1.2 4.4 -0.4
v -1.2 6.4 -0.4
v -0.5 6.2 -0.4
v -0.5 6.4 -0.4
v -0.3 5.9 -0.4
v -0.3 6.2 -0.4
v -0.0999998 5.7 -0.4
v -0.0999998 5.9 -0.4
v 0.1 5.6 -0.4
v 0.1 5.7 -0.4
v 0.3 5.5 -0.4
v 0.3 5.6 -0.4
v 0.6 5.3 -0.4
v 0.6 5.5 -0.4
v 0.9 5.1 -0.4
v 0.9 5.3 -0.4
v 1 4.9 -0.4
v 1 5.1 -0.4
v 1.1 4.7 -0.4
v 1.1 4.9 -0.4
v 1.2 4.5 -0.4
v 1.2 4.7 -0.4
v 1.3 4.5 -0.4
v 1.3 6.4 -0.4
v -1.2 4 -0.5
v -1.2 6.5 -0.5
v -0.5 6.2 -0.5
v -0.5 6.5 -0.5
v -0.3 5.9 -0.5
v -0.3 6.2 -0.5
v -0.0999998 5.7 -0.5
v -0.0999998 5.9 -0.5
v 0.1 5.6 -0.5
v 0.1 5.7 -0.5
v 0.3 5.5 -0.5
v 0.3 5.6 -0.5
v 0.6 5.3 -0.5
v 0.6 5.5 -0.5
v 0.9 5.1 -0.5
v 0.9 5.3 -0.5
v 1 4.9 -0.5
v 1 5.1 -0.5
v 1.1 4.7 -0.5
v 1.1 4.9 -0.5
v 1.2 4 -0.5
v 1.2 4.7 -0.5
v -1.2 4 0.0999998
v 1.2 4 0.0999998
v -1.2 4 -0.1
v 1.2 4 -0.1
v -1.2 4 -0.4
v 1.2 4 -0.4
v -1.2 4 -0.5
v 1.2 4 -0.5
v -1.3 4.4 -0.3
v -1.2 4.4 -0.3
v -1.3 4.4 -0.4
v -1.2 4.4 -0.4
v -1.3 4.5 -1.93715e-007
v -1.2 4.5 -1.93715e-007
v 1.2 4.5 -1.93715e-007
v 1.3 4.5 -1.93715e-007
v -1.2 4.5 -0.1
v 1.2 4.5 -0.1
v -1.3 4.5 -0.3
v -1.2 4.5 -0.3
v 1.2 4.5 -0.4
v 1.3 4.5 -0.4
v 1.1 4.5 0.0999998
v 1.2 4.5 0.0999998
v 1.1 4.5 -1.93715e-007
v 1.2 4.5 -1.93715e-007
v 0.9 4.7 0.0999998
v 1.1 4.7 0.0999998
v 0.9 4.7 -1.93715e-007
v 1.1 4.7 -1.93715e-007
v 1.1 4.7 -0.4
v 1.2 4.7 -0.4
v 1.1 4.7 -0.5
v 1.2 4.7 -0.5
v 0.8 4.8 0.0999998
v 0.9 4.8 0.0999998
v 0.8 4.8 -1.93715e-007
v 0.9 4.8 -1.93715e-007
v 1 4.9 -0.4
v 1.1 4.9 -0.4
v 1 4.9 -0.5
v 1.1 4.9 -0.5
v 0.5 5 0.0999998
v 0.8 5 0.0999998
v 0.5 5 -1.93715e-007
v 0.8 5 -1.93715e-007
v 0.9 5.1 -0.4
v 1 5.1 -0.4
v 0.9 5.1 -0.5
v 1 5.1 -0.5
v 0.4 5.2 0.0999998
v 0.5 5.2 0.0999998
v 0.4 5.2 -1.93715e-007
v 0.5 5.2 -1.93715e-007
v 0.6 5.3 -0.4
v 0.9 5.3 -0.4
v 0.6 5.3 -0.5
v 0.9 5.3 -0.5
v 0.1 5.4 0.0999998
v 0.4 5.4 0.0999998
v 0.1 5.4 -1.93715e-007
v 0.4 5.4 -1.93715e-007
v 0.3 5.5 -0.4
v 0.6 5.5 -0.4
v 0.3 5.5 -0.5
v 0.6 5.5 -0.5
v -0.0999998 5.6 0.0999998
v 0.1 5.6 0.0999998
v -0.0999998 5.6 -1.93715e-007
v 0.1 5.6 -1.93715e-007
v 0.1 5.6 -0.4
v 0.3 5.6 -0.4
v 0.1 5.6 -0.5
v 0.3 5.6 -0.5
v -0.0999998 5.7 -0.4
v 0.1 5.7 -0.4
v -0.0999998 5.7 -0.5
v 0.1 5.7 -0.5
v -0.2 5.8 0.0999998
v -0.0999998 5.8 0.0999998
v -0.2 5.8 -1.93715e-007
v -0.0999998 5.8 -1.93715e-007
v -0.3 5.9 -0.4
v -0.0999998 5.9 -0.4
v -0.3 5.9 -0.5
v -0.0999998 5.9 -0.5
v -0.5 6 0.0999998
v -0.2 6 0.0999998
v -0.5 6 -1.93715e-007
v -0.2 6 -1.93715e-007
v -0.5 6.2 -0.4
v -0.3 6.2 -0.4
v -0.5 6.2 -0.5
v -0.3 6.2 -0.5
v -1.3 6.4 -1.93715e-007
v -1.2 6.4 -1.93715e-007
v -0.5 6.4 -1.93715e-007
v 1.3 6.4 -1.93715e-007
v -1.3 6.4 -0.4
v -1.2 6.4 -0.4
v -0.5 6.4 -0.4
v 1.3 6.4 -0.4
v -1.2 6.5 0.0999998
v -0.5 6.5 0.0999998
v -1.2 6.5 -0.5
v -0.5 6.5 -0.5

# faces
f 4/1/1 2/1/1 1/1/1
f 5/1/1 4/1/1 3/1/1
f 6/1/1 2/1/1 4/1/1
f 6/1/1 4/1/1 5/1/1
f 11/1/1 9/1/1 8/1/1
f 12/2/1 10/2/1 9/2/1
f 12/1/1 9/1/1 11/1/1
f 13/2/1 8/2/1 7/2/1
f 14/1/1 11/1/1 8/1/1
f 14/2/1 8/2/1 13/2/1
f 15/1/1 11/1/1 14/1/1
f 16/2/1 13/2/1 7/2/1
f 17/2/1 10/2/1 12/2/1
f 18/2/1 16/2/1 7/2/1
f 18/2/1 17/2/1 16/2/1
f 19/2/1 10/2/1 17/2/1
f 19/2/1 17/2/1 18/2/1
f 20/2/2 21/2/2 24/2/2
f 22/2/2 23/2/2 25/2/2
f 20/2/2 24/2/2 26/2/2
f 24/2/2 25/2/2 26/2/2
f 25/2/2 23/2/2 27/2/2
f 26/2/2 25/2/2 27/2/2
f 28/2/2 29/2/2 30/2/2
f 30/2/2 29/2/2 31/2/2
f 32/2/2 33/2/2 34/2/2
f 34/2/2 33/2/2 35/2/2
f 36/2/2 37/2/2 40/2/2
f 40/2/2 37/2/2 41/2/2
f 38/2/2 39/2/2 42/2/2
f 42/2/2 39/2/2 43/2/2
f 44/2/2 45/2/2 46/2/2
f 46/2/2 45/2/2 47/2/2
f 48/2/2 49/2/2 50/2/2
f 50/2/2 49/2/2 51/2/2
f 52/2/2 53/2/2 54/2/2
f 54/2/2 53/2/2 55/2/2
f 56/2/2 57/2/2 58/2/2
f 58/2/2 57/2/2 59/2/2
f 60/2/2 61/2/2 62/2/2
f 62/2/2 61/2/2 63/2/2
f 64/2/2 65/2/2 66/2/2
f 66/2/2 65/2/2 67/2/2
f 68/2/2 69/2/2 70/2/2
f 70/2/2 69/2/2 71/2/2
f 72/2/2 73/2/2 74/2/2
f 74/2/2 73/2/2 75/2/2
f 76/2/2 77/2/2 78/2/2
f 78/2/2 77/2/2 79/2/2
f 80/2/2 81/2/2 82/2/2
f 82/2/2 81/2/2 83/2/2
f 84/2/2 85/2/2 86/2/2
f 86/2/2 85/2/2 87/2/2
f 88/2/2 89/2/2 90/2/2
f 90/2/2 89/2/2 91/2/2
f 92/2/2 93/2/2 96/2/2
f 96/2/2 93/2/2 97/2/2
f 93/1/2 94/1/2 98/1/2
f 97/2/2 93/2/2 98/2/2
f 94/2/2 95/2/2 99/2/2
f 98/1/2 94/1/2 99/1/2
f 99/2/2 95/2/2 100/2/2
f 100/2/2 95/2/2 101/2/2
f 102/1/2 103/1/2 104/1/2
f 104/1/2 103/1/2 105/1/2
f 108/2/3 107/2/3 106/2/3
f 109/2/3 107/2/3 108/2/3
f 110/2/3 108/2/3 106/2/3
f 111/2/3 108/2/3 110/2/3
f 112/2/3 110/2/3 106/2/3
f 113/2/3 110/2/3 112/2/3
f 114/2/3 112/2/3 106/2/3
f 115/2/3 112/2/3 114/2/3
f 116/2/3 114/2/3 106/2/3
f 117/2/3 114/2/3 116/2/3
f 118/2/3 116/2/3 106/2/3
f 119/2/3 116/2/3 118/2/3
f 120/2/3 118/2/3 106/2/3
f 121/2/3 118/2/3 120/2/3
f 122/2/3 120/2/3 106/2/3
f 123/2/3 120/2/3 122/2/3
f 124/2/3 122/2/3 106/2/3
f 125/2/3 122/2/3 124/2/3
f 126/2/3 124/2/3 106/2/3
f 127/2/3 124/2/3 126/2/3
f 130/1/3 129/1/3 128/1/3
f 131/1/3 129/1/3 130/1/3
f 135/1/3 133/1/3 132/1/3
f 137/1/3 135/1/3 134/1/3
f 139/1/3 137/1/3 136/1/3
f 141/1/3 139/1/3 138/1/3
f 143/1/3 141/1/3 140/1/3
f 145/1/3 143/1/3 142/1/3
f 147/1/3 145/1/3 144/1/3
f 149/1/3 147/1/3 146/1/3
f 150/1/3 149/1/3 148/1/3
f 151/1/3 149/1/3 150/1/3
f 152/1/3 133/1/3 135/1/3
f 152/1/3 149/1/3 151/1/3
f 152/1/3 135/1/3 137/1/3
f 152/1/3 137/1/3 139/1/3
f 152/1/3 147/1/3 149/1/3
f 152/1/3 139/1/3 141/1/3
f 152/1/3 145/1/3 147/1/3
f 152/1/3 141/1/3 143/1/3
f 152/1/3 143/1/3 145/1/3
f 155/1/3 154/1/3 153/1/3
f 156/1/3 154/1/3 155/1/3
f 157/1/4 158/1/4 159/1/4
f 159/1/4 158/1/4 160/1/4
f 161/1/4 162/1/4 164/1/4
f 163/1/4 164/1/4 166/1/4
f 165/1/4 166/1/4 168/1/4
f 167/1/4 168/1/4 170/1/4
f 169/1/4 170/1/4 172/1/4
f 171/1/4 172/1/4 174/1/4
f 173/1/4 174/1/4 176/1/4
f 175/1/4 176/1/4 178/1/4
f 177/1/4 178/1/4 180/1/4
f 179/1/4 180/1/4 181/1/4
f 164/1/4 162/1/4 182/1/4
f 181/1/4 180/1/4 182/1/4
f 166/1/4 164/1/4 182/1/4
f 180/1/4 178/1/4 182/1/4
f 168/1/4 166/1/4 182/1/4
f 178/1/4 176/1/4 182/1/4
f 170/1/4 168/1/4 182/1/4
f 176/1/4 174/1/4 182/1/4
f 172/1/4 170/1/4 182/1/4
f 174/1/4 172/1/4 182/1/4
f 183/2/4 184/2/4 185/2/4
f 185/2/4 184/2/4 186/2/4
f 183/2/4 185/2/4 187/2/4
f 187/2/4 185/2/4 188/2/4
f 183/2/4 187/2/4 189/2/4
f 189/2/4 187/2/4 190/2/4
f 183/2/4 189/2/4 191/2/4
f 191/2/4 189/2/4 192/2/4
f 183/2/4 191/2/4 193/2/4
f 193/2/4 191/2/4 194/2/4
f 183/2/4 193/2/4 195/2/4
f 195/2/4 193/2/4 196/2/4
f 183/2/4 195/2/4 197/2/4
f 197/2/4 195/2/4 198/2/4
f 183/2/4 197/2/4 199/2/4
f 199/2/4 197/2/4 200/2/4
f 183/2/4 199/2/4 201/2/4
f 201/2/4 199/2/4 202/2/4
f 183/2/4 201/2/4 203/2/4
f 203/2/4 201/2/4 204/2/4
f 207/2/5 206/2/5 205/2/5
f 208/2/5 206/2/5 207/2/5
f 209/1/5 208/1/5 207/1/5
f 210/1/5 208/1/5 209/1/5
f 211/2/5 210/2/5 209/2/5
f 212/2/5 210/2/5 211/2/5
f 215/1/5 214/1/5 213/1/5
f 216/1/5 214/1/5 215/1/5
f 221/1/5 218/1/5 217/1/5
f 222/1/5 220/1/5 219/1/5
f 223/1/5 221/1/5 217/1/5
f 224/1/5 221/1/5 223/1/5
f 225/1/5 220/1/5 222/1/5
f 226/1/5 220/1/5 225/1/5
f 227/2/6 228/2/6 229/2/6
f 229/2/6 228/2/6 230/2/6
f 231/2/6 232/2/6 233/2/6
f 233/2/6 232/2/6 234/2/6
f 235/2/6 236/2/6 237/2/6
f 237/2/6 236/2/6 238/2/6
f 239/2/6 240/2/6 241/2/6
f 241/2/6 240/2/6 242/2/6
f 243/2/6 244/2/6 245/2/6
f 245/2/6 244/2/6 246/2/6
f 247/2/6 248/2/6 249/2/6
f 249/2/6 248/2/6 250/2/6
f 251/2/6 252/2/6 253/2/6
f 253/2/6 252/2/6 254/2/6
f 255/2/6 256/2/6 257/2/6
f 257/2/6 256/2/6 258/2/6
f 259/2/6 260/2/6 261/2/6
f 261/2/6 260/2/6 262/2/6
f 263/2/6 264/2/6 265/2/6
f 265/2/6 264/2/6 266/2/6
f 267/2/6 268/2/6 269/2/6
f 269/2/6 268/2/6 270/2/6
f 271/2/6 272/2/6 273/2/6
f 273/2/6 272/2/6 274/2/6
f 275/2/6 276/2/6 277/2/6
f 277/2/6 276/2/6 278/2/6
f 279/2/6 280/2/6 281/2/6
f 281/2/6 280/2/6 282/2/6
f 283/2/6 284/2/6 285/2/6
f 285/2/6 284/2/6 286/2/6
f 287/2/6 288/2/6 289/2/6
f 289/2/6 288/2/6 290/2/6
f 291/2/6 292/2/6 293/2/6
f 293/2/6 292/2/6 294/2/6
f 295/2/6 296/2/6 297/2/6
f 297/2/6 296/2/6 298/2/6
f 299/1/6 300/1/6 303/1/6
f 303/1/6 300/1/6 304/1/6
f 301/1/6 302/1/6 305/1/6
f 305/1/6 302/1/6 306/1/6
f 307/2/6 308/2/6 309/2/6
f 309/2/6 308/2/6 310/2/6
