# MagicaVoxel @ Ephtracy

# group
o 

# material
mtllib Goblin-3.mtl
usemtl palette

# normals
vn -1 0 0
vn 1 0 0
vn 0 0 1
vn 0 0 -1
vn 0 -1 0
vn 0 1 0

# texcoords
vt 0.630859 0.5
vt 0.865234 0.5

# verts
v -1.3 2.3 -9.68575e-008
v -1.3 2.3 -0.1
v -1.3 2.7 -0.1
v -1.3 2.7 -0.4
v -1.3 3.2 -0.4
v -1.3 3.2 -0.5
v -1.3 4 -9.68575e-008
v -1.3 4 -0.5
v -1.1 2.1 -0.1
v -1.1 2.1 -0.4
v -1.1 2.4 -0.1
v -1.1 3.2 -0.4
v -1.1 3.3 -0.1
v -1.1 3.3 -0.4
v -1.2 2.3 -9.68575e-008
v -1.2 2.3 -0.1
v -1.2 2.4 -9.68575e-008
v -1.2 2.4 -0.1
v -1.2 2.7 -0.1
v -1.2 2.7 -0.4
v -1.2 3.2 -0.4
v -1.2 3.3 -0.1
v -1.2 3.3 -0.4
v -1.1 2.4 -9.68575e-008
v -1.1 2.4 -0.1
v -1.1 2.5 -9.68575e-008
v -1.1 2.5 -0.1
v -1 2.5 -9.68575e-008
v -1 2.5 -0.1
v -1 2.7 -9.68575e-008
v -1 2.7 -0.1
v -0.8 2.1 -0.1
v -0.8 2.1 -0.4
v -0.8 2.7 -9.68575e-008
v -0.8 2.7 -0.1
v -0.8 2.9 -9.68575e-008
v -0.8 2.9 -0.1
v -0.8 3.2 -0.4
v -0.8 3.3 -0.1
v -0.8 3.3 -0.4
v -0.7 2.9 -9.68575e-008
v -0.7 2.9 -0.1
v -0.7 3.1 -9.68575e-008
v -0.7 3.1 -0.1
v -0.4 3.1 -9.68575e-008
v -0.4 3.1 -0.1
v -0.4 3.2 -9.68575e-008
v -0.4 3.2 -0.1
v -0.0999998 3.2 -9.68575e-008
v -0.0999998 3.2 -0.1
v -0.0999998 3.2 -0.4
v -0.0999998 3.2 -0.5
v -0.0999998 3.3 -0.1
v -0.0999998 3.3 -0.4
v -0.0999998 4 -9.68575e-008
v -0.0999998 4 -0.1
v -0.0999998 4 -0.4
v -0.0999998 4 -0.5
v -1.3 2.3 -9.68575e-008
v -1.3 4 -9.68575e-008
v -1.2 2.3 -9.68575e-008
v -1.2 2.4 -9.68575e-008
v -1.1 2.4 -9.68575e-008
v -1.1 2.5 -9.68575e-008
v -1 2.5 -9.68575e-008
v -1 2.7 -9.68575e-008
v -0.8 2.7 -9.68575e-008
v -0.8 2.9 -9.68575e-008
v -0.7 2.9 -9.68575e-008
v -0.7 3.1 -9.68575e-008
v -0.4 3.1 -9.68575e-008
v -0.4 3.2 -9.68575e-008
v -0.0999998 3.2 -9.68575e-008
v -0.0999998 4 -9.68575e-008
v -1.1 2.1 -0.1
v -1.1 2.4 -0.1
v -1.1 2.5 -0.1
v -1 2.5 -0.1
v -1 2.7 -0.1
v -0.8 2.1 -0.1
v -0.8 2.7 -0.1
v -1.2 3.2 -0.4
v -1.2 3.3 -0.4
v -1.1 3.2 -0.4
v -1.1 3.3 -0.4
v -0.8 3.2 -0.4
v -0.8 3.3 -0.4
v -0.0999998 3.2 -0.4
v -0.0999998 3.3 -0.4
v -1.3 2.3 -0.1
v -1.3 2.7 -0.1
v -1.2 2.3 -0.1
v -1.2 2.4 -0.1
v -1.2 2.7 -0.1
v -1.2 3.3 -0.1
v -1.1 2.4 -0.1
v -1.1 3.3 -0.1
v -0.8 2.9 -0.1
v -0.8 3.3 -0.1
v -0.7 2.9 -0.1
v -0.7 3.1 -0.1
v -0.4 3.1 -0.1
v -0.4 3.2 -0.1
v -0.0999998 3.2 -0.1
v -0.0999998 3.3 -0.1
v -1.3 2.7 -0.4
v -1.3 3.2 -0.4
v -1.2 2.7 -0.4
v -1.2 3.2 -0.4
v -1.1 2.1 -0.4
v -1.1 3.2 -0.4
v -0.8 2.1 -0.4
v -0.8 3.2 -0.4
v -1.3 3.2 -0.5
v -1.3 4 -0.5
v -0.0999998 3.2 -0.5
v -0.0999998 4 -0.5
v -1.1 2.1 -0.1
v -0.8 2.1 -0.1
v -1.1 2.1 -0.4
v -0.8 2.1 -0.4
v -1.3 2.3 -9.68575e-008
v -1.2 2.3 -9.68575e-008
v -1.3 2.3 -0.1
v -1.2 2.3 -0.1
v -1.2 2.4 -9.68575e-008
v -1.1 2.4 -9.68575e-008
v -1.2 2.4 -0.1
v -1.1 2.4 -0.1
v -1.1 2.5 -9.68575e-008
v -1 2.5 -9.68575e-008
v -1.1 2.5 -0.1
v -1 2.5 -0.1
v -1 2.7 -9.68575e-008
v -0.8 2.7 -9.68575e-008
v -1.3 2.7 -0.1
v -1.2 2.7 -0.1
v -1 2.7 -0.1
v -0.8 2.7 -0.1
v -1.3 2.7 -0.4
v -1.2 2.7 -0.4
v -0.8 2.9 -9.68575e-008
v -0.7 2.9 -9.68575e-008
v -0.8 2.9 -0.1
v -0.7 2.9 -0.1
v -0.7 3.1 -9.68575e-008
v -0.4 3.1 -9.68575e-008
v -0.7 3.1 -0.1
v -0.4 3.1 -0.1
v -0.4 3.2 -9.68575e-008
v -0.0999998 3.2 -9.68575e-008
v -0.4 3.2 -0.1
v -0.0999998 3.2 -0.1
v -1.3 3.2 -0.4
v -1.2 3.2 -0.4
v -1.1 3.2 -0.4
v -0.8 3.2 -0.4
v -0.0999998 3.2 -0.4
v -1.3 3.2 -0.5
v -0.0999998 3.2 -0.5
v -1.2 3.3 -0.1
v -1.1 3.3 -0.1
v -0.8 3.3 -0.1
v -0.0999998 3.3 -0.1
v -1.2 3.3 -0.4
v -1.1 3.3 -0.4
v -0.8 3.3 -0.4
v -0.0999998 3.3 -0.4
v -1.3 4 -9.68575e-008
v -0.0999998 4 -9.68575e-008
v -1.2 4 -0.1
v -0.0999998 4 -0.1
v -1.2 4 -0.4
v -0.0999998 4 -0.4
v -1.3 4 -0.5
v -0.0999998 4 -0.5

# faces
f 3/2/1 2/2/1 1/2/1
f 5/2/1 4/2/1 3/2/1
f 7/2/1 3/2/1 1/2/1
f 7/2/1 6/2/1 5/2/1
f 7/2/1 5/2/1 3/2/1
f 8/2/1 6/2/1 7/2/1
f 11/1/1 10/1/1 9/1/1
f 12/1/1 10/1/1 11/1/1
f 13/1/1 12/1/1 11/1/1
f 14/1/1 12/1/1 13/1/1
f 15/2/2 16/2/2 17/2/2
f 17/2/2 16/2/2 18/2/2
f 19/2/2 20/2/2 21/2/2
f 19/2/2 21/2/2 22/2/2
f 22/2/2 21/2/2 23/2/2
f 24/2/2 25/2/2 26/2/2
f 26/2/2 25/2/2 27/2/2
f 28/2/2 29/2/2 30/2/2
f 30/2/2 29/2/2 31/2/2
f 32/1/2 33/1/2 35/1/2
f 34/2/2 35/2/2 36/2/2
f 35/1/2 33/1/2 37/1/2
f 36/2/2 35/2/2 37/2/2
f 37/1/2 33/1/2 38/1/2
f 37/1/2 38/1/2 39/1/2
f 39/1/2 38/1/2 40/1/2
f 41/2/2 42/2/2 43/2/2
f 43/2/2 42/2/2 44/2/2
f 45/2/2 46/2/2 47/2/2
f 47/2/2 46/2/2 48/2/2
f 49/2/2 50/2/2 53/2/2
f 51/2/2 52/2/2 54/2/2
f 49/2/2 53/2/2 55/2/2
f 53/1/2 54/1/2 56/1/2
f 55/2/2 53/2/2 56/2/2
f 54/2/2 52/2/2 57/2/2
f 56/1/2 54/1/2 57/1/2
f 57/2/2 52/2/2 58/2/2
f 61/2/3 60/2/3 59/2/3
f 62/2/3 60/2/3 61/2/3
f 63/2/3 60/2/3 62/2/3
f 64/2/3 60/2/3 63/2/3
f 65/2/3 60/2/3 64/2/3
f 66/2/3 60/2/3 65/2/3
f 67/2/3 60/2/3 66/2/3
f 68/2/3 60/2/3 67/2/3
f 69/2/3 60/2/3 68/2/3
f 70/2/3 60/2/3 69/2/3
f 71/2/3 60/2/3 70/2/3
f 72/2/3 60/2/3 71/2/3
f 73/2/3 60/2/3 72/2/3
f 74/2/3 60/2/3 73/2/3
f 78/1/3 76/1/3 75/1/3
f 78/1/3 77/1/3 76/1/3
f 80/1/3 78/1/3 75/1/3
f 80/1/3 79/1/3 78/1/3
f 81/1/3 79/1/3 80/1/3
f 84/2/3 83/2/3 82/2/3
f 85/2/3 83/2/3 84/2/3
f 88/2/3 87/2/3 86/2/3
f 89/2/3 87/2/3 88/2/3
f 90/2/4 91/2/4 92/2/4
f 92/2/4 91/2/4 93/2/4
f 93/2/4 91/2/4 94/2/4
f 94/2/4 95/2/4 96/2/4
f 93/2/4 94/2/4 96/2/4
f 96/2/4 95/2/4 97/2/4
f 98/2/4 99/2/4 100/2/4
f 100/2/4 99/2/4 101/2/4
f 101/2/4 99/2/4 102/2/4
f 102/2/4 99/2/4 103/2/4
f 103/2/4 99/2/4 104/2/4
f 104/2/4 99/2/4 105/2/4
f 106/2/4 107/2/4 108/2/4
f 108/2/4 107/2/4 109/2/4
f 110/1/4 111/1/4 112/1/4
f 112/1/4 111/1/4 113/1/4
f 114/2/4 115/2/4 116/2/4
f 116/2/4 115/2/4 117/2/4
f 120/1/5 119/1/5 118/1/5
f 121/1/5 119/1/5 120/1/5
f 124/2/5 123/2/5 122/2/5
f 125/2/5 123/2/5 124/2/5
f 128/2/5 127/2/5 126/2/5
f 129/2/5 127/2/5 128/2/5
f 132/2/5 131/2/5 130/2/5
f 133/2/5 131/2/5 132/2/5
f 138/2/5 135/2/5 134/2/5
f 139/2/5 135/2/5 138/2/5
f 140/2/5 137/2/5 136/2/5
f 141/2/5 137/2/5 140/2/5
f 144/2/5 143/2/5 142/2/5
f 145/2/5 143/2/5 144/2/5
f 148/2/5 147/2/5 146/2/5
f 149/2/5 147/2/5 148/2/5
f 152/2/5 151/2/5 150/2/5
f 153/2/5 151/2/5 152/2/5
f 159/2/5 155/2/5 154/2/5
f 159/2/5 158/2/5 157/2/5
f 159/2/5 157/2/5 156/2/5
f 159/2/5 156/2/5 155/2/5
f 160/2/5 158/2/5 159/2/5
f 165/1/5 162/1/5 161/1/5
f 166/1/5 162/1/5 165/1/5
f 167/1/5 164/1/5 163/1/5
f 168/1/5 164/1/5 167/1/5
f 169/2/6 170/2/6 171/2/6
f 171/2/6 170/2/6 172/2/6
f 169/2/6 171/2/6 173/2/6
f 171/1/6 172/1/6 173/1/6
f 173/1/6 172/1/6 174/1/6
f 169/2/6 173/2/6 175/2/6
f 173/2/6 174/2/6 175/2/6
f 175/2/6 174/2/6 176/2/6
