# MagicaVoxel @ Ephtracy

# group
o 

# material
mtllib Goblin-7.mtl
usemtl palette

# normals
vn -1 0 0
vn 1 0 0
vn 0 0 1
vn 0 0 -1
vn 0 -1 0
vn 0 1 0

# texcoords
vt 0.630859 0.5
vt 0.841797 0.5
vt 0.865234 0.5

# verts
v -1.8 4 -9.68575e-008
v -1.8 4 -0.1
v -1.8 4 -0.3
v -1.8 4 -0.5
v -1.8 4.2 -0.1
v -1.8 4.2 -0.3
v -1.8 4.4 -9.68575e-008
v -1.8 4.4 -0.5
v -1.7 3.4 -0.1
v -1.7 3.4 -0.4
v -1.7 3.5 -0.3
v -1.7 3.5 -0.4
v -1.7 3.6 -0.2
v -1.7 3.6 -0.3
v -1.7 3.6 -0.4
v -1.7 3.7 -0.1
v -1.7 3.7 -0.2
v -1.7 3.7 -0.3
v -1.7 3.7 -0.4
v -1.7 4 -0.1
v -1.7 4 -0.2
v -1.7 4 -0.3
v -1.7 4 -0.4
v -1.7 4.2 -0.1
v -1.7 4.2 -0.2
v -1.7 4.2 -0.3
v -1.7 4.4 -0.1
v -1.7 4.4 -0.2
v -1.7 4.4 -0.3
v -1.7 4.4 -0.4
v -1.7 4.6 -0.2
v -1.7 4.6 -0.3
v -1.7 4.6 -0.4
v -1.7 4.7 -0.1
v -1.7 4.7 -0.2
v -1.7 4.9 -0.3
v -1.7 4.9 -0.4
v -1.7 5.4 -0.1
v -1.7 5.4 -0.2
v -1.7 5.4 -0.4
v -1.5 4 -0.4
v -1.5 4 -0.5
v -1.5 4.1 -0.4
v -1.5 4.1 -0.5
v -1.4 4.1 -0.4
v -1.4 4.1 -0.5
v -1.4 4.3 -0.4
v -1.4 4.3 -0.5
v -1.7 4 -0.4
v -1.7 4 -0.5
v -1.7 4.1 -0.4
v -1.7 4.1 -0.5
v -1.6 4.1 -0.4
v -1.6 4.1 -0.5
v -1.6 4.2 -0.4
v -1.6 4.2 -0.5
v -1.6 4.3 -9.68575e-008
v -1.6 4.3 -0.1
v -1.6 4.4 -9.68575e-008
v -1.6 4.4 -0.1
v -1.5 4.2 -9.68575e-008
v -1.5 4.2 -0.1
v -1.5 4.2 -0.4
v -1.5 4.2 -0.5
v -1.5 4.3 -9.68575e-008
v -1.5 4.3 -0.1
v -1.5 4.3 -0.4
v -1.5 4.3 -0.5
v -1.4 3.4 -0.1
v -1.4 3.4 -0.4
v -1.4 3.5 -0.1
v -1.4 3.5 -0.2
v -1.4 3.6 -0.1
v -1.4 3.6 -0.2
v -1.4 3.7 -0.1
v -1.4 3.7 -0.4
v -1.4 4 -9.68575e-008
v -1.4 4 -0.1
v -1.4 4 -0.4
v -1.4 4.2 -9.68575e-008
v -1.4 4.2 -0.1
v -1.4 4.2 -0.2
v -1.4 4.4 -0.1
v -1.4 4.4 -0.2
v -1.4 4.4 -0.3
v -1.4 4.4 -0.4
v -1.4 4.6 -0.3
v -1.4 4.6 -0.4
v -1.4 4.8 -0.1
v -1.4 4.8 -0.2
v -1.4 5.4 -0.1
v -1.4 5.4 -0.4
v -1.3 4 -0.1
v -1.3 4 -0.5
v -1.3 4.2 -0.1
v -1.3 4.2 -0.2
v -1.3 4.4 -0.2
v -1.3 4.4 -0.5
v -1.8 4 -9.68575e-008
v -1.8 4.4 -9.68575e-008
v -1.6 4.3 -9.68575e-008
v -1.6 4.4 -9.68575e-008
v -1.5 4.2 -9.68575e-008
v -1.5 4.3 -9.68575e-008
v -1.4 4 -9.68575e-008
v -1.4 4.2 -9.68575e-008
v -1.7 3.4 -0.1
v -1.7 3.7 -0.1
v -1.7 4 -0.1
v -1.7 4.4 -0.1
v -1.7 4.7 -0.1
v -1.7 5.4 -0.1
v -1.6 3.6 -0.1
v -1.6 3.7 -0.1
v -1.6 4.3 -0.1
v -1.6 4.4 -0.1
v -1.6 4.5 -0.1
v -1.6 4.7 -0.1
v -1.6 5.4 -0.1
v -1.5 3.5 -0.1
v -1.5 3.6 -0.1
v -1.5 3.7 -0.1
v -1.5 4.2 -0.1
v -1.5 4.3 -0.1
v -1.5 4.4 -0.1
v -1.5 4.5 -0.1
v -1.5 4.8 -0.1
v -1.4 3.4 -0.1
v -1.4 3.5 -0.1
v -1.4 3.6 -0.1
v -1.4 3.7 -0.1
v -1.4 4 -0.1
v -1.4 4.2 -0.1
v -1.4 4.4 -0.1
v -1.4 4.8 -0.1
v -1.4 5.4 -0.1
v -1.3 4 -0.1
v -1.3 4.2 -0.1
v -1.4 4.2 -0.2
v -1.4 4.4 -0.2
v -1.3 4.2 -0.2
v -1.3 4.4 -0.2
v -1.8 4 -0.3
v -1.8 4.2 -0.3
v -1.7 4 -0.3
v -1.7 4.2 -0.3
v -1.8 4 -0.1
v -1.8 4.2 -0.1
v -1.7 4 -0.1
v -1.7 4.2 -0.1
v -1.7 3.4 -0.4
v -1.7 3.5 -0.4
v -1.7 3.6 -0.4
v -1.7 3.7 -0.4
v -1.7 4 -0.4
v -1.7 4.1 -0.4
v -1.7 4.4 -0.4
v -1.7 4.6 -0.4
v -1.7 4.9 -0.4
v -1.7 5.4 -0.4
v -1.6 3.6 -0.4
v -1.6 3.7 -0.4
v -1.6 4 -0.4
v -1.6 4.1 -0.4
v -1.6 4.2 -0.4
v -1.6 4.6 -0.4
v -1.6 4.9 -0.4
v -1.5 3.5 -0.4
v -1.5 3.7 -0.4
v -1.5 4 -0.4
v -1.5 4.1 -0.4
v -1.5 4.2 -0.4
v -1.5 4.3 -0.4
v -1.5 4.4 -0.4
v -1.5 4.6 -0.4
v -1.4 3.4 -0.4
v -1.4 3.7 -0.4
v -1.4 4 -0.4
v -1.4 4.1 -0.4
v -1.4 4.3 -0.4
v -1.4 4.4 -0.4
v -1.4 4.6 -0.4
v -1.4 5.4 -0.4
v -1.8 4 -0.5
v -1.8 4.4 -0.5
v -1.7 4 -0.5
v -1.7 4.1 -0.5
v -1.6 4.1 -0.5
v -1.6 4.2 -0.5
v -1.5 4 -0.5
v -1.5 4.1 -0.5
v -1.5 4.2 -0.5
v -1.5 4.3 -0.5
v -1.4 4.1 -0.5
v -1.4 4.3 -0.5
v -1.3 4 -0.5
v -1.3 4.4 -0.5
v -1.7 3.4 -0.1
v -1.4 3.4 -0.1
v -1.7 3.4 -0.4
v -1.4 3.4 -0.4
v -1.8 4 -9.68575e-008
v -1.4 4 -9.68575e-008
v -1.8 4 -0.1
v -1.7 4 -0.1
v -1.4 4 -0.1
v -1.3 4 -0.1
v -1.8 4 -0.3
v -1.7 4 -0.3
v -1.7 4 -0.4
v -1.5 4 -0.4
v -1.4 4 -0.4
v -1.8 4 -0.5
v -1.7 4 -0.5
v -1.5 4 -0.5
v -1.3 4 -0.5
v -1.7 4.1 -0.4
v -1.6 4.1 -0.4
v -1.7 4.1 -0.5
v -1.6 4.1 -0.5
v -1.8 4.2 -0.1
v -1.7 4.2 -0.1
v -1.7 4.2 -0.2
v -1.8 4.2 -0.3
v -1.7 4.2 -0.3
v -1.6 4.2 -0.4
v -1.5 4.2 -0.4
v -1.6 4.2 -0.5
v -1.5 4.2 -0.5
v -1.5 4.3 -0.4
v -1.4 4.3 -0.4
v -1.5 4.3 -0.5
v -1.4 4.3 -0.5
v -1.5 4.1 -0.4
v -1.4 4.1 -0.4
v -1.5 4.1 -0.5
v -1.4 4.1 -0.5
v -1.5 4.2 -9.68575e-008
v -1.4 4.2 -9.68575e-008
v -1.5 4.2 -0.1
v -1.4 4.2 -0.1
v -1.3 4.2 -0.1
v -1.4 4.2 -0.2
v -1.3 4.2 -0.2
v -1.6 4.3 -9.68575e-008
v -1.5 4.3 -9.68575e-008
v -1.6 4.3 -0.1
v -1.5 4.3 -0.1
v -1.8 4.4 -9.68575e-008
v -1.6 4.4 -9.68575e-008
v -1.7 4.4 -0.1
v -1.6 4.4 -0.1
v -1.7 4.4 -0.2
v -1.4 4.4 -0.2
v -1.3 4.4 -0.2
v -1.7 4.4 -0.3
v -1.4 4.4 -0.3
v -1.7 4.4 -0.4
v -1.5 4.4 -0.4
v -1.4 4.4 -0.4
v -1.8 4.4 -0.5
v -1.3 4.4 -0.5
v -1.7 5.4 -0.1
v -1.6 5.4 -0.1
v -1.4 5.4 -0.1
v -1.7 5.4 -0.2
v -1.6 5.4 -0.2
v -1.7 5.4 -0.4
v -1.4 5.4 -0.4

# faces
f 5/3/1 2/3/1 1/3/1
f 6/3/1 4/3/1 3/3/1
f 7/3/1 5/3/1 1/3/1
f 7/3/1 6/3/1 5/3/1
f 8/3/1 4/3/1 6/3/1
f 8/3/1 6/3/1 7/3/1
f 11/1/1 10/1/1 9/1/1
f 12/1/1 10/1/1 11/1/1
f 13/1/1 11/1/1 9/1/1
f 14/2/1 12/2/1 11/2/1
f 14/1/1 11/1/1 13/1/1
f 15/2/1 12/2/1 14/2/1
f 16/1/1 13/1/1 9/1/1
f 17/2/1 14/2/1 13/2/1
f 17/1/1 13/1/1 16/1/1
f 18/1/1 15/1/1 14/1/1
f 18/2/1 14/2/1 17/2/1
f 19/1/1 15/1/1 18/1/1
f 20/2/1 17/2/1 16/2/1
f 20/2/1 18/2/1 17/2/1
f 20/2/1 19/2/1 18/2/1
f 21/2/1 19/2/1 20/2/1
f 22/2/1 19/2/1 21/2/1
f 23/2/1 19/2/1 22/2/1
f 24/1/1 21/1/1 20/1/1
f 25/2/1 22/2/1 21/2/1
f 25/1/1 21/1/1 24/1/1
f 26/2/1 22/2/1 25/2/1
f 31/2/1 29/2/1 28/2/1
f 31/1/1 28/1/1 27/1/1
f 32/1/1 30/1/1 29/1/1
f 32/2/1 29/2/1 31/2/1
f 33/1/1 30/1/1 32/1/1
f 34/1/1 31/1/1 27/1/1
f 34/1/1 32/1/1 31/1/1
f 35/1/1 32/1/1 34/1/1
f 36/2/1 33/2/1 32/2/1
f 36/1/1 32/1/1 35/1/1
f 37/2/1 33/2/1 36/2/1
f 38/2/1 35/2/1 34/2/1
f 39/1/1 36/1/1 35/1/1
f 39/2/1 35/2/1 38/2/1
f 39/1/1 37/1/1 36/1/1
f 40/1/1 37/1/1 39/1/1
f 43/3/1 42/3/1 41/3/1
f 44/3/1 42/3/1 43/3/1
f 47/3/1 46/3/1 45/3/1
f 48/3/1 46/3/1 47/3/1
f 49/3/2 50/3/2 51/3/2
f 51/3/2 50/3/2 52/3/2
f 53/3/2 54/3/2 55/3/2
f 55/3/2 54/3/2 56/3/2
f 57/3/2 58/3/2 59/3/2
f 59/3/2 58/3/2 60/3/2
f 61/3/2 62/3/2 65/3/2
f 65/3/2 62/3/2 66/3/2
f 63/3/2 64/3/2 67/3/2
f 67/3/2 64/3/2 68/3/2
f 69/1/2 70/1/2 71/1/2
f 71/1/2 70/1/2 72/1/2
f 71/2/2 72/2/2 73/2/2
f 72/1/2 70/1/2 74/1/2
f 73/2/2 72/2/2 74/2/2
f 73/1/2 74/1/2 75/1/2
f 74/1/2 70/1/2 76/1/2
f 75/1/2 74/1/2 76/1/2
f 75/2/2 76/2/2 78/2/2
f 78/2/2 76/2/2 79/2/2
f 77/3/2 78/3/2 80/3/2
f 80/3/2 78/3/2 81/3/2
f 81/1/2 82/1/2 83/1/2
f 83/1/2 82/1/2 84/1/2
f 84/1/2 85/1/2 87/1/2
f 85/2/2 86/2/2 87/2/2
f 87/2/2 86/2/2 88/2/2
f 83/2/2 84/2/2 89/2/2
f 84/1/2 87/1/2 90/1/2
f 89/2/2 84/2/2 90/2/2
f 87/1/2 88/1/2 90/1/2
f 89/1/2 90/1/2 91/1/2
f 90/1/2 88/1/2 92/1/2
f 91/1/2 90/1/2 92/1/2
f 93/3/2 94/3/2 95/3/2
f 95/3/2 94/3/2 96/3/2
f 96/3/2 94/3/2 97/3/2
f 97/3/2 94/3/2 98/3/2
f 101/3/3 100/3/3 99/3/3
f 102/3/3 100/3/3 101/3/3
f 103/3/3 101/3/3 99/3/3
f 104/3/3 101/3/3 103/3/3
f 105/3/3 103/3/3 99/3/3
f 106/3/3 103/3/3 105/3/3
f 113/1/3 108/1/3 107/1/3
f 114/2/3 109/2/3 108/2/3
f 114/1/3 108/1/3 113/1/3
f 116/1/3 111/1/3 110/1/3
f 117/1/3 111/1/3 116/1/3
f 118/2/3 112/2/3 111/2/3
f 118/1/3 111/1/3 117/1/3
f 119/2/3 112/2/3 118/2/3
f 120/1/3 113/1/3 107/1/3
f 121/2/3 114/2/3 113/2/3
f 121/1/3 113/1/3 120/1/3
f 122/2/3 109/2/3 114/2/3
f 122/2/3 114/2/3 121/2/3
f 124/2/3 117/2/3 116/2/3
f 124/2/3 116/2/3 115/2/3
f 125/2/3 117/2/3 124/2/3
f 126/1/3 118/1/3 117/1/3
f 126/2/3 117/2/3 125/2/3
f 126/1/3 119/1/3 118/1/3
f 127/1/3 119/1/3 126/1/3
f 128/1/3 120/1/3 107/1/3
f 129/2/3 121/2/3 120/2/3
f 129/1/3 120/1/3 128/1/3
f 130/1/3 122/1/3 121/1/3
f 130/2/3 121/2/3 129/2/3
f 131/2/3 109/2/3 122/2/3
f 131/1/3 122/1/3 130/1/3
f 132/2/3 109/2/3 131/2/3
f 133/1/3 125/1/3 124/1/3
f 133/1/3 124/1/3 123/1/3
f 134/2/3 126/2/3 125/2/3
f 134/2/3 127/2/3 126/2/3
f 134/1/3 125/1/3 133/1/3
f 135/1/3 119/1/3 127/1/3
f 135/2/3 127/2/3 134/2/3
f 136/1/3 119/1/3 135/1/3
f 137/3/3 133/3/3 132/3/3
f 138/3/3 133/3/3 137/3/3
f 141/3/3 140/3/3 139/3/3
f 142/3/3 140/3/3 141/3/3
f 145/3/3 144/3/3 143/3/3
f 146/3/3 144/3/3 145/3/3
f 147/3/4 148/3/4 149/3/4
f 149/3/4 148/3/4 150/3/4
f 152/2/4 153/2/4 161/2/4
f 153/1/4 154/1/4 161/1/4
f 154/2/4 155/2/4 162/2/4
f 161/1/4 154/1/4 162/1/4
f 155/1/4 156/1/4 163/1/4
f 162/2/4 155/2/4 163/2/4
f 163/1/4 156/1/4 164/1/4
f 158/2/4 159/2/4 166/2/4
f 157/1/4 158/1/4 166/1/4
f 159/1/4 160/1/4 167/1/4
f 166/2/4 159/2/4 167/2/4
f 151/1/4 152/1/4 168/1/4
f 164/2/4 165/2/4 168/2/4
f 152/2/4 161/2/4 168/2/4
f 162/2/4 163/2/4 168/2/4
f 163/2/4 164/2/4 168/2/4
f 161/2/4 162/2/4 168/2/4
f 168/2/4 165/2/4 169/2/4
f 169/2/4 165/2/4 170/2/4
f 170/2/4 165/2/4 171/2/4
f 171/2/4 165/2/4 172/2/4
f 157/1/4 166/1/4 174/1/4
f 166/1/4 167/1/4 174/1/4
f 174/1/4 167/1/4 175/1/4
f 151/1/4 168/1/4 176/1/4
f 168/1/4 169/1/4 176/1/4
f 169/2/4 170/2/4 177/2/4
f 176/1/4 169/1/4 177/1/4
f 177/2/4 170/2/4 178/2/4
f 172/1/4 173/1/4 179/1/4
f 171/1/4 172/1/4 179/1/4
f 179/1/4 173/1/4 180/1/4
f 174/2/4 175/2/4 181/2/4
f 175/1/4 167/1/4 182/1/4
f 181/2/4 175/2/4 182/2/4
f 167/1/4 160/1/4 183/1/4
f 182/1/4 167/1/4 183/1/4
f 184/3/4 185/3/4 186/3/4
f 186/3/4 185/3/4 187/3/4
f 187/3/4 185/3/4 188/3/4
f 188/3/4 185/3/4 189/3/4
f 189/3/4 185/3/4 192/3/4
f 192/3/4 185/3/4 193/3/4
f 190/3/4 191/3/4 194/3/4
f 193/3/4 185/3/4 195/3/4
f 190/3/4 194/3/4 196/3/4
f 194/3/4 195/3/4 196/3/4
f 195/3/4 185/3/4 197/3/4
f 196/3/4 195/3/4 197/3/4
f 200/1/5 199/1/5 198/1/5
f 201/1/5 199/1/5 200/1/5
f 204/3/5 203/3/5 202/3/5
f 205/3/5 203/3/5 204/3/5
f 206/3/5 203/3/5 205/3/5
f 210/3/5 209/3/5 208/3/5
f 212/3/5 207/3/5 206/3/5
f 213/3/5 210/3/5 208/3/5
f 214/3/5 210/3/5 213/3/5
f 215/3/5 212/3/5 211/3/5
f 216/3/5 207/3/5 212/3/5
f 216/3/5 212/3/5 215/3/5
f 219/3/5 218/3/5 217/3/5
f 220/3/5 218/3/5 219/3/5
f 223/3/5 222/3/5 221/3/5
f 224/3/5 223/3/5 221/3/5
f 225/3/5 223/3/5 224/3/5
f 228/3/5 227/3/5 226/3/5
f 229/3/5 227/3/5 228/3/5
f 232/3/5 231/3/5 230/3/5
f 233/3/5 231/3/5 232/3/5
f 234/3/6 235/3/6 236/3/6
f 236/3/6 235/3/6 237/3/6
f 238/3/6 239/3/6 240/3/6
f 240/3/6 239/3/6 241/3/6
f 241/3/6 242/3/6 243/3/6
f 243/3/6 242/3/6 244/3/6
f 245/3/6 246/3/6 247/3/6
f 247/3/6 246/3/6 248/3/6
f 249/3/6 250/3/6 251/3/6
f 251/3/6 250/3/6 252/3/6
f 249/3/6 251/3/6 253/3/6
f 249/3/6 253/3/6 256/3/6
f 254/3/6 255/3/6 257/3/6
f 249/3/6 256/3/6 258/3/6
f 257/3/6 255/3/6 260/3/6
f 258/3/6 259/3/6 261/3/6
f 259/3/6 260/3/6 261/3/6
f 249/3/6 258/3/6 261/3/6
f 260/3/6 255/3/6 262/3/6
f 261/3/6 260/3/6 262/3/6
f 263/2/6 264/2/6 266/2/6
f 264/1/6 265/1/6 267/1/6
f 266/2/6 264/2/6 267/2/6
f 266/1/6 267/1/6 268/1/6
f 267/1/6 265/1/6 269/1/6
f 268/1/6 267/1/6 269/1/6
