# MagicaVoxel @ Ephtracy

# group
o 

# material
mtllib RangeRifle(parts)-7.mtl
usemtl palette

# normals
vn -1 0 0
vn 1 0 0
vn 0 0 1
vn 0 0 -1
vn 0 -1 0
vn 0 1 0

# texcoords
vt 0.373047 0.5
vt 0.865234 0.5
vt 0.896484 0.5
vt 0.900391 0.5
vt 0.904297 0.5
vt 0.982422 0.5
vt 0.990234 0.5
vt 0.994141 0.5

# verts
v -3 4.7 -0.4
v -3 4.7 -1.7
v -3 4.7 -1.9
v -3 4.8 -0.3
v -3 4.8 -0.4
v -3 6 -0.4
v -3 6 -1.7
v -3 6.2 -0.3
v -3 6.2 -1.9
v -2.9 3 -0.4
v -2.9 3 -1.9
v -2.9 3.4 -0.3
v -2.9 3.4 -0.4
v -2.9 4.4 -0.4
v -2.9 4.4 -1.7
v -2.9 4.7 -0.4
v -2.9 4.7 -1.7
v -2.9 4.7 -1.9
v -2.9 4.8 -0.3
v -2.9 4.8 -0.4
v -2.8 1 -0.7
v -2.8 1 -1.5
v -2.8 2.7 -0.7
v -2.8 2.7 -1.5
v -2.8 2.9 -0.6
v -2.8 2.9 -0.7
v -2.8 2.9 -1.5
v -2.8 2.9 -1.6
v -2.8 3 -0.6
v -2.8 3 -1.6
v -2.7 5 -0.2
v -2.7 5 -0.3
v -2.7 5.7 -0.2
v -2.7 5.7 -0.3
v -2.6 4.9 -0.2
v -2.6 4.9 -0.3
v -2.6 5 -0.2
v -2.6 5 -0.3
v -2.4 4.8 -0.2
v -2.4 4.8 -0.3
v -2.4 4.9 -0.2
v -2.4 4.9 -0.3
v -2.1 4.7 -0.2
v -2.1 4.7 -0.3
v -2.1 4.8 -0.2
v -2.1 4.8 -0.3
v -1.8 4.5 -0.2
v -1.8 4.5 -0.3
v -1.8 4.7 -0.2
v -1.8 4.7 -0.3
v -1.7 4.4 -0.2
v -1.7 4.4 -0.3
v -1.7 4.5 -0.2
v -1.7 4.5 -0.3
v -0.4 4.4 -0.2
v -0.4 4.4 -0.3
v -0.4 5.7 -0.2
v -0.4 5.7 -0.3
v 0.1 5.9 -1.8
v 0.1 5.9 -1.9
v 0.1 6 -1.8
v 0.1 6 -1.9
v 0.2 1.7 -0.7
v 0.2 1.7 -1.5
v 0.2 1.8 -0.7
v 0.2 1.8 -1.5
v 0.3 1 -0.7
v 0.3 1 -1.5
v 0.3 1.7 -0.7
v 0.3 1.7 -1.5
v 0.4 6 -1.8
v 0.4 6 -1.9
v 0.4 6.1 -1.8
v 0.4 6.1 -1.9
v 0.6 6.1 -0.3
v 0.6 6.1 -0.4
v 0.6 6.1 -1.8
v 0.6 6.1 -1.9
v 0.6 6.2 -0.3
v 0.6 6.2 -1.9
v -1.6 6.1 -0.3
v -1.6 6.1 -0.4
v -1.6 6.1 -1.8
v -1.6 6.1 -1.9
v -1.6 6.2 -0.3
v -1.6 6.2 -1.9
v -1.4 6 -1.8
v -1.4 6 -1.9
v -1.4 6.1 -1.8
v -1.4 6.1 -1.9
v -1.3 1 -0.7
v -1.3 1 -1.5
v -1.3 1.7 -0.7
v -1.3 1.7 -1.5
v -1.2 1.7 -0.7
v -1.2 1.7 -1.5
v -1.2 1.8 -0.7
v -1.2 1.8 -1.5
v -1.1 5.9 -1.8
v -1.1 5.9 -1.9
v -1.1 6 -1.8
v -1.1 6 -1.9
v -0.6 4.4 -0.2
v -0.6 4.4 -0.3
v -0.6 5.7 -0.2
v -0.6 5.7 -0.3
v 0.7 4.4 -0.2
v 0.7 4.4 -0.3
v 0.7 4.5 -0.2
v 0.7 4.5 -0.3
v 0.8 4.5 -0.2
v 0.8 4.5 -0.3
v 0.8 4.7 -0.2
v 0.8 4.7 -0.3
v 1.1 4.7 -0.2
v 1.1 4.7 -0.3
v 1.1 4.8 -0.2
v 1.1 4.8 -0.3
v 1.4 4.8 -0.2
v 1.4 4.8 -0.3
v 1.4 4.9 -0.2
v 1.4 4.9 -0.3
v 1.6 4.9 -0.2
v 1.6 4.9 -0.3
v 1.6 5 -0.2
v 1.6 5 -0.3
v 1.7 5 -0.2
v 1.7 5 -0.3
v 1.7 5.7 -0.2
v 1.7 5.7 -0.3
v 1.8 1 -0.7
v 1.8 1 -1.5
v 1.8 2.7 -0.7
v 1.8 2.7 -1.5
v 1.8 2.9 -0.6
v 1.8 2.9 -0.7
v 1.8 2.9 -1.5
v 1.8 2.9 -1.6
v 1.8 3 -0.6
v 1.8 3 -1.6
v 1.9 3 -0.4
v 1.9 3 -1.9
v 1.9 3.4 -0.3
v 1.9 3.4 -0.4
v 1.9 4.4 -0.4
v 1.9 4.4 -1.7
v 1.9 4.7 -0.4
v 1.9 4.7 -1.7
v 1.9 4.7 -1.9
v 1.9 4.8 -0.3
v 1.9 4.8 -0.4
v 2 4.7 -0.4
v 2 4.7 -1.7
v 2 4.7 -1.9
v 2 4.8 -0.3
v 2 4.8 -0.4
v 2 6 -0.4
v 2 6 -1.7
v 2 6.2 -0.3
v 2 6.2 -1.9
v -2.7 5 -0.2
v -2.7 5.7 -0.2
v -2.6 4.9 -0.2
v -2.6 5 -0.2
v -2.4 4.8 -0.2
v -2.4 4.9 -0.2
v -2.1 4.7 -0.2
v -2.1 4.8 -0.2
v -1.8 4.5 -0.2
v -1.8 4.7 -0.2
v -1.7 4.4 -0.2
v -1.7 4.5 -0.2
v -0.6 4.4 -0.2
v -0.6 5.7 -0.2
v -0.4 4.4 -0.2
v -0.4 5.7 -0.2
v 0.7 4.4 -0.2
v 0.7 4.5 -0.2
v 0.8 4.5 -0.2
v 0.8 4.7 -0.2
v 1.1 4.7 -0.2
v 1.1 4.8 -0.2
v 1.4 4.8 -0.2
v 1.4 4.9 -0.2
v 1.6 4.9 -0.2
v 1.6 5 -0.2
v 1.7 5 -0.2
v 1.7 5.7 -0.2
v -3 4.8 -0.3
v -3 6.2 -0.3
v -2.9 3.4 -0.3
v -2.9 4.8 -0.3
v -2.7 5 -0.3
v -2.7 5.7 -0.3
v -2.6 4.9 -0.3
v -2.6 5 -0.3
v -2.4 4.8 -0.3
v -2.4 4.9 -0.3
v -2.1 4.7 -0.3
v -2.1 4.8 -0.3
v -1.8 4.5 -0.3
v -1.8 4.7 -0.3
v -1.7 4.4 -0.3
v -1.7 4.5 -0.3
v -1.6 6.1 -0.3
v -1.6 6.2 -0.3
v -0.6 4.4 -0.3
v -0.6 5.7 -0.3
v -0.4 4.4 -0.3
v -0.4 5.7 -0.3
v 0.6 6.1 -0.3
v 0.6 6.2 -0.3
v 0.7 4.4 -0.3
v 0.7 4.5 -0.3
v 0.8 4.5 -0.3
v 0.8 4.7 -0.3
v 1.1 4.7 -0.3
v 1.1 4.8 -0.3
v 1.4 4.8 -0.3
v 1.4 4.9 -0.3
v 1.6 4.9 -0.3
v 1.6 5 -0.3
v 1.7 5 -0.3
v 1.7 5.7 -0.3
v 1.9 3.4 -0.3
v 1.9 4.8 -0.3
v 2 4.8 -0.3
v 2 6.2 -0.3
v -3 4.7 -0.4
v -3 4.8 -0.4
v -2.9 3 -0.4
v -2.9 3.4 -0.4
v -2.9 4.7 -0.4
v -2.9 4.8 -0.4
v 1.9 3 -0.4
v 1.9 3.4 -0.4
v 1.9 4.7 -0.4
v 1.9 4.8 -0.4
v 2 4.7 -0.4
v 2 4.8 -0.4
v -2.8 2.9 -0.6
v -2.8 3 -0.6
v -0.7 2.9 -0.6
v -0.7 3 -0.6
v -0.6 2.9 -0.6
v -0.6 3 -0.6
v 1.8 2.9 -0.6
v 1.8 3 -0.6
v -2.8 1 -0.7
v -2.8 2.7 -0.7
v -2.8 2.9 -0.7
v -1.3 1 -0.7
v -1.3 1.7 -0.7
v -1.2 1.7 -0.7
v -1.2 1.8 -0.7
v -0.8 2.6 -0.7
v -0.8 2.7 -0.7
v -0.8 2.8 -0.7
v -0.8 2.9 -0.7
v -0.7 2.6 -0.7
v -0.7 2.7 -0.7
v -0.7 2.8 -0.7
v -0.7 2.9 -0.7
v -0.6 2.7 -0.7
v -0.6 2.8 -0.7
v -0.6 2.9 -0.7
v -0.5 2.8 -0.7
v -0.5 2.9 -0.7
v -0.0999999 2.8 -0.7
v -0.0999999 2.9 -0.7
v 2.38419e-007 2.8 -0.7
v 2.38419e-007 2.9 -0.7
v 0.2 1.7 -0.7
v 0.2 1.8 -0.7
v 0.3 1 -0.7
v 0.3 1.7 -0.7
v 0.4 2.8 -0.7
v 0.4 2.9 -0.7
v 0.5 2.8 -0.7
v 0.5 2.9 -0.7
v 0.9 2.8 -0.7
v 0.9 2.9 -0.7
v 1 2.8 -0.7
v 1 2.9 -0.7
v 1.4 2.8 -0.7
v 1.4 2.9 -0.7
v 1.5 2.8 -0.7
v 1.5 2.9 -0.7
v 1.8 1 -0.7
v 1.8 2.7 -0.7
v 1.8 2.9 -0.7
v -2.8 1 -1.5
v -2.8 2.7 -1.5
v -2.8 2.9 -1.5
v -1.3 1 -1.5
v -1.3 1.7 -1.5
v -1.2 1.7 -1.5
v -1.2 1.8 -1.5
v 0.2 1.7 -1.5
v 0.2 1.8 -1.5
v 0.3 1 -1.5
v 0.3 1.7 -1.5
v 1.8 1 -1.5
v 1.8 2.7 -1.5
v 1.8 2.9 -1.5
v -2.8 2.9 -1.6
v -2.8 3 -1.6
v 1.8 2.9 -1.6
v 1.8 3 -1.6
v -1.4 6 -1.8
v -1.4 6.1 -1.8
v -1.1 5.9 -1.8
v -1.1 6 -1.8
v 0.1 5.9 -1.8
v 0.1 6 -1.8
v 0.4 6 -1.8
v 0.4 6.1 -1.8
v -3 4.7 -1.9
v -3 6.2 -1.9
v -2.9 3 -1.9
v -2.9 4.7 -1.9
v -1.6 6.1 -1.9
v -1.6 6.2 -1.9
v -1.4 6 -1.9
v -1.4 6.1 -1.9
v -1.1 5.9 -1.9
v -1.1 6 -1.9
v 0.1 5.9 -1.9
v 0.1 6 -1.9
v 0.4 6 -1.9
v 0.4 6.1 -1.9
v 0.6 6.1 -1.9
v 0.6 6.2 -1.9
v 1.9 3 -1.9
v 1.9 4.7 -1.9
v 2 4.7 -1.9
v 2 6.2 -1.9
v -2.8 1 -0.7
v -1.3 1 -0.7
v 0.3 1 -0.7
v 1.8 1 -0.7
v -2.8 1 -1.5
v -1.3 1 -1.5
v 0.3 1 -1.5
v 1.8 1 -1.5
v -1.3 1.7 -0.7
v -1.2 1.7 -0.7
v 0.2 1.7 -0.7
v 0.3 1.7 -0.7
v -1.3 1.7 -1.5
v -1.2 1.7 -1.5
v 0.2 1.7 -1.5
v 0.3 1.7 -1.5
v -1.2 1.8 -0.7
v 0.2 1.8 -0.7
v -1.2 1.8 -1.5
v 0.2 1.8 -1.5
v -2.8 2.9 -0.6
v -0.7 2.9 -0.6
v -0.6 2.9 -0.6
v 1.8 2.9 -0.6
v -2.8 2.9 -0.7
v -0.8 2.9 -0.7
v -0.7 2.9 -0.7
v -0.6 2.9 -0.7
v -0.5 2.9 -0.7
v -0.0999999 2.9 -0.7
v 2.38419e-007 2.9 -0.7
v 0.4 2.9 -0.7
v 0.5 2.9 -0.7
v 0.9 2.9 -0.7
v 1 2.9 -0.7
v 1.4 2.9 -0.7
v 1.5 2.9 -0.7
v 1.8 2.9 -0.7
v -2.8 2.9 -1.5
v 1.8 2.9 -1.5
v -2.8 2.9 -1.6
v 1.8 2.9 -1.6
v -2.9 3 -0.4
v 1.9 3 -0.4
v -2.8 3 -0.5
v 1.8 3 -0.5
v -2.8 3 -0.6
v -0.7 3 -0.6
v -0.6 3 -0.6
v 1.8 3 -0.6
v -2.8 3 -1.6
v 1.8 3 -1.6
v -2.8 3 -1.8
v 1.8 3 -1.8
v -2.9 3 -1.9
v 1.9 3 -1.9
v -2.9 3.4 -0.3
v 1.9 3.4 -0.3
v -2.9 3.4 -0.4
v 1.9 3.4 -0.4
v -1.7 4.4 -0.2
v -0.6 4.4 -0.2
v -0.4 4.4 -0.2
v 0.7 4.4 -0.2
v -1.7 4.4 -0.3
v -0.6 4.4 -0.3
v -0.4 4.4 -0.3
v 0.7 4.4 -0.3
v -1.8 4.5 -0.2
v -1.7 4.5 -0.2
v 0.7 4.5 -0.2
v 0.8 4.5 -0.2
v -1.8 4.5 -0.3
v -1.7 4.5 -0.3
v 0.7 4.5 -0.3
v 0.8 4.5 -0.3
v -2.1 4.7 -0.2
v -1.8 4.7 -0.2
v 0.8 4.7 -0.2
v 1.1 4.7 -0.2
v -2.1 4.7 -0.3
v -1.8 4.7 -0.3
v 0.8 4.7 -0.3
v 1.1 4.7 -0.3
v -3 4.7 -0.4
v -2.9 4.7 -0.4
v 1.9 4.7 -0.4
v 2 4.7 -0.4
v -3 4.7 -1.7
v -2.9 4.7 -1.7
v 1.9 4.7 -1.7
v 2 4.7 -1.7
v -3 4.7 -1.9
v -2.9 4.7 -1.9
v 1.9 4.7 -1.9
v 2 4.7 -1.9
v -2.4 4.8 -0.2
v -2.1 4.8 -0.2
v 1.1 4.8 -0.2
v 1.4 4.8 -0.2
v -3 4.8 -0.3
v -2.9 4.8 -0.3
v -2.4 4.8 -0.3
v -2.1 4.8 -0.3
v 1.1 4.8 -0.3
v 1.4 4.8 -0.3
v 1.9 4.8 -0.3
v 2 4.8 -0.3
v -3 4.8 -0.4
v -2.9 4.8 -0.4
v 1.9 4.8 -0.4
v 2 4.8 -0.4
v -2.6 4.9 -0.2
v -2.4 4.9 -0.2
v 1.4 4.9 -0.2
v 1.6 4.9 -0.2
v -2.6 4.9 -0.3
v -2.4 4.9 -0.3
v 1.4 4.9 -0.3
v 1.6 4.9 -0.3
v -2.7 5 -0.2
v -2.6 5 -0.2
v 1.6 5 -0.2
v 1.7 5 -0.2
v -2.7 5 -0.3
v -2.6 5 -0.3
v 1.6 5 -0.3
v 1.7 5 -0.3
v -2.7 5.7 -0.2
v -0.6 5.7 -0.2
v -0.4 5.7 -0.2
v 1.7 5.7 -0.2
v -2.7 5.7 -0.3
v -0.6 5.7 -0.3
v -0.4 5.7 -0.3
v 1.7 5.7 -0.3
v -1.1 5.9 -1.8
v 0.1 5.9 -1.8
v -1.1 5.9 -1.9
v 0.1 5.9 -1.9
v -1.4 6 -1.8
v -1.1 6 -1.8
v 0.1 6 -1.8
v 0.4 6 -1.8
v -1.4 6 -1.9
v -1.1 6 -1.9
v 0.1 6 -1.9
v 0.4 6 -1.9
v -1.6 6.1 -0.3
v 0.6 6.1 -0.3
v -1.6 6.1 -0.4
v 0.6 6.1 -0.4
v -1.6 6.1 -1.8
v -1.4 6.1 -1.8
v 0.4 6.1 -1.8
v 0.6 6.1 -1.8
v -1.6 6.1 -1.9
v -1.4 6.1 -1.9
v 0.4 6.1 -1.9
v 0.6 6.1 -1.9
v -3 6.2 -0.3
v -1.6 6.2 -0.3
v 0.6 6.2 -0.3
v 2 6.2 -0.3
v -3 6.2 -1.9
v -1.6 6.2 -1.9
v 0.6 6.2 -1.9
v 2 6.2 -1.9

# faces
f 5/4/1 2/4/1 1/4/1
f 6/4/1 2/4/1 5/4/1
f 6/5/1 5/5/1 4/5/1
f 7/5/1 3/5/1 2/5/1
f 7/4/1 2/4/1 6/4/1
f 8/5/1 6/5/1 4/5/1
f 8/5/1 7/5/1 6/5/1
f 9/5/1 3/5/1 7/5/1
f 9/5/1 7/5/1 8/5/1
f 13/5/1 11/5/1 10/5/1
f 14/5/1 11/5/1 13/5/1
f 14/5/1 13/5/1 12/5/1
f 15/5/1 11/5/1 14/5/1
f 16/5/1 14/5/1 12/5/1
f 16/4/1 15/4/1 14/4/1
f 17/5/1 11/5/1 15/5/1
f 17/4/1 15/4/1 16/4/1
f 18/5/1 11/5/1 17/5/1
f 19/5/1 16/5/1 12/5/1
f 20/5/1 16/5/1 19/5/1
f 23/1/1 22/1/1 21/1/1
f 24/1/1 22/1/1 23/1/1
f 26/2/1 24/2/1 23/2/1
f 27/2/1 24/2/1 26/2/1
f 29/2/1 27/2/1 26/2/1
f 29/2/1 28/2/1 27/2/1
f 29/2/1 26/2/1 25/2/1
f 30/2/1 28/2/1 29/2/1
f 33/5/1 32/5/1 31/5/1
f 34/5/1 32/5/1 33/5/1
f 37/5/1 36/5/1 35/5/1
f 38/5/1 36/5/1 37/5/1
f 41/5/1 40/5/1 39/5/1
f 42/5/1 40/5/1 41/5/1
f 45/5/1 44/5/1 43/5/1
f 46/5/1 44/5/1 45/5/1
f 49/5/1 48/5/1 47/5/1
f 50/5/1 48/5/1 49/5/1
f 53/5/1 52/5/1 51/5/1
f 54/5/1 52/5/1 53/5/1
f 57/5/1 56/5/1 55/5/1
f 58/5/1 56/5/1 57/5/1
f 61/5/1 60/5/1 59/5/1
f 62/5/1 60/5/1 61/5/1
f 65/1/1 64/1/1 63/1/1
f 66/1/1 64/1/1 65/1/1
f 69/1/1 68/1/1 67/1/1
f 70/1/1 68/1/1 69/1/1
f 73/5/1 72/5/1 71/5/1
f 74/5/1 72/5/1 73/5/1
f 79/5/1 76/5/1 75/5/1
f 79/5/1 78/5/1 77/5/1
f 79/5/1 77/5/1 76/5/1
f 80/5/1 78/5/1 79/5/1
f 81/5/2 82/5/2 85/5/2
f 83/5/2 84/5/2 85/5/2
f 82/5/2 83/5/2 85/5/2
f 85/5/2 84/5/2 86/5/2
f 87/5/2 88/5/2 89/5/2
f 89/5/2 88/5/2 90/5/2
f 91/1/2 92/1/2 93/1/2
f 93/1/2 92/1/2 94/1/2
f 95/1/2 96/1/2 97/1/2
f 97/1/2 96/1/2 98/1/2
f 99/5/2 100/5/2 101/5/2
f 101/5/2 100/5/2 102/5/2
f 103/5/2 104/5/2 105/5/2
f 105/5/2 104/5/2 106/5/2
f 107/5/2 108/5/2 109/5/2
f 109/5/2 108/5/2 110/5/2
f 111/5/2 112/5/2 113/5/2
f 113/5/2 112/5/2 114/5/2
f 115/5/2 116/5/2 117/5/2
f 117/5/2 116/5/2 118/5/2
f 119/5/2 120/5/2 121/5/2
f 121/5/2 120/5/2 122/5/2
f 123/5/2 124/5/2 125/5/2
f 125/5/2 124/5/2 126/5/2
f 127/5/2 128/5/2 129/5/2
f 129/5/2 128/5/2 130/5/2
f 131/1/2 132/1/2 133/1/2
f 133/1/2 132/1/2 134/1/2
f 133/2/2 134/2/2 136/2/2
f 136/2/2 134/2/2 137/2/2
f 136/2/2 137/2/2 139/2/2
f 137/2/2 138/2/2 139/2/2
f 135/2/2 136/2/2 139/2/2
f 139/2/2 138/2/2 140/2/2
f 141/5/2 142/5/2 144/5/2
f 144/5/2 142/5/2 145/5/2
f 143/5/2 144/5/2 145/5/2
f 145/5/2 142/5/2 146/5/2
f 143/5/2 145/5/2 147/5/2
f 145/4/2 146/4/2 147/4/2
f 146/5/2 142/5/2 148/5/2
f 147/4/2 146/4/2 148/4/2
f 148/5/2 142/5/2 149/5/2
f 143/5/2 147/5/2 150/5/2
f 150/5/2 147/5/2 151/5/2
f 152/4/2 153/4/2 156/4/2
f 156/4/2 153/4/2 157/4/2
f 155/5/2 156/5/2 157/5/2
f 153/5/2 154/5/2 158/5/2
f 157/4/2 153/4/2 158/4/2
f 155/5/2 157/5/2 159/5/2
f 157/5/2 158/5/2 159/5/2
f 158/5/2 154/5/2 160/5/2
f 159/5/2 158/5/2 160/5/2
f 164/5/3 162/5/3 161/5/3
f 166/5/3 164/5/3 163/5/3
f 168/5/3 166/5/3 165/5/3
f 170/5/3 168/5/3 167/5/3
f 172/5/3 170/5/3 169/5/3
f 173/5/3 172/5/3 171/5/3
f 174/5/3 162/5/3 164/5/3
f 174/5/3 172/5/3 173/5/3
f 174/5/3 164/5/3 166/5/3
f 174/5/3 170/5/3 172/5/3
f 174/5/3 166/5/3 168/5/3
f 174/5/3 168/5/3 170/5/3
f 177/5/3 176/5/3 175/5/3
f 178/5/3 176/5/3 177/5/3
f 179/5/3 176/5/3 178/5/3
f 180/5/3 176/5/3 179/5/3
f 181/5/3 176/5/3 180/5/3
f 182/5/3 176/5/3 181/5/3
f 183/5/3 176/5/3 182/5/3
f 184/5/3 176/5/3 183/5/3
f 185/5/3 176/5/3 184/5/3
f 186/5/3 176/5/3 185/5/3
f 187/5/3 176/5/3 186/5/3
f 188/5/3 176/5/3 187/5/3
f 192/5/3 190/5/3 189/5/3
f 193/5/3 190/5/3 192/5/3
f 193/5/3 192/5/3 191/5/3
f 194/5/3 190/5/3 193/5/3
f 195/5/3 193/5/3 191/5/3
f 196/5/3 193/5/3 195/5/3
f 197/5/3 195/5/3 191/5/3
f 198/5/3 195/5/3 197/5/3
f 199/5/3 197/5/3 191/5/3
f 200/5/3 197/5/3 199/5/3
f 201/5/3 199/5/3 191/5/3
f 202/5/3 199/5/3 201/5/3
f 203/5/3 201/5/3 191/5/3
f 204/5/3 201/5/3 203/5/3
f 205/5/3 190/5/3 194/5/3
f 206/5/3 190/5/3 205/5/3
f 207/5/3 203/5/3 191/5/3
f 208/5/3 205/5/3 194/5/3
f 209/5/3 207/5/3 191/5/3
f 209/5/3 208/5/3 207/5/3
f 210/5/3 205/5/3 208/5/3
f 210/5/3 208/5/3 209/5/3
f 211/5/3 205/5/3 210/5/3
f 213/5/3 209/5/3 191/5/3
f 215/5/3 214/5/3 213/5/3
f 217/5/3 216/5/3 215/5/3
f 219/5/3 218/5/3 217/5/3
f 221/5/3 220/5/3 219/5/3
f 223/5/3 222/5/3 221/5/3
f 224/5/3 212/5/3 211/5/3
f 224/5/3 211/5/3 210/5/3
f 225/5/3 223/5/3 221/5/3
f 225/5/3 224/5/3 223/5/3
f 225/5/3 221/5/3 219/5/3
f 225/5/3 213/5/3 191/5/3
f 225/5/3 219/5/3 217/5/3
f 225/5/3 217/5/3 215/5/3
f 225/5/3 215/5/3 213/5/3
f 226/5/3 224/5/3 225/5/3
f 227/5/3 224/5/3 226/5/3
f 228/5/3 212/5/3 224/5/3
f 228/5/3 224/5/3 227/5/3
f 233/4/3 230/4/3 229/4/3
f 234/4/3 230/4/3 233/4/3
f 235/5/3 232/5/3 231/5/3
f 236/5/3 232/5/3 235/5/3
f 239/4/3 238/4/3 237/4/3
f 240/4/3 238/4/3 239/4/3
f 243/2/3 242/2/3 241/2/3
f 244/2/3 242/2/3 243/2/3
f 245/6/3 244/6/3 243/6/3
f 246/6/3 244/6/3 245/6/3
f 247/2/3 246/2/3 245/2/3
f 248/2/3 246/2/3 247/2/3
f 252/1/3 250/1/3 249/1/3
f 253/1/3 250/1/3 252/1/3
f 254/1/3 250/1/3 253/1/3
f 255/1/3 250/1/3 254/1/3
f 256/1/3 250/1/3 255/1/3
f 257/2/3 251/2/3 250/2/3
f 257/1/3 250/1/3 256/1/3
f 258/2/3 251/2/3 257/2/3
f 259/2/3 251/2/3 258/2/3
f 260/1/3 256/1/3 255/1/3
f 260/6/3 257/6/3 256/6/3
f 261/2/3 258/2/3 257/2/3
f 261/6/3 257/6/3 260/6/3
f 262/7/3 259/7/3 258/7/3
f 262/2/3 258/2/3 261/2/3
f 263/7/3 259/7/3 262/7/3
f 264/1/3 261/1/3 260/1/3
f 264/6/3 262/6/3 261/6/3
f 265/7/3 263/7/3 262/7/3
f 265/6/3 262/6/3 264/6/3
f 266/7/3 263/7/3 265/7/3
f 267/2/3 265/2/3 264/2/3
f 267/7/3 266/7/3 265/7/3
f 268/7/3 266/7/3 267/7/3
f 269/2/3 267/2/3 264/2/3
f 269/2/3 268/2/3 267/2/3
f 270/2/3 268/2/3 269/2/3
f 271/2/3 269/2/3 264/2/3
f 271/8/3 270/8/3 269/8/3
f 272/8/3 270/8/3 271/8/3
f 274/1/3 260/1/3 255/1/3
f 274/1/3 264/1/3 260/1/3
f 276/1/3 274/1/3 273/1/3
f 277/2/3 272/2/3 271/2/3
f 277/2/3 271/2/3 264/2/3
f 278/2/3 272/2/3 277/2/3
f 279/2/3 277/2/3 264/2/3
f 279/8/3 278/8/3 277/8/3
f 280/8/3 278/8/3 279/8/3
f 281/2/3 279/2/3 264/2/3
f 281/2/3 280/2/3 279/2/3
f 282/2/3 280/2/3 281/2/3
f 283/2/3 281/2/3 264/2/3
f 283/8/3 282/8/3 281/8/3
f 284/8/3 282/8/3 283/8/3
f 285/2/3 283/2/3 264/2/3
f 285/2/3 284/2/3 283/2/3
f 286/2/3 284/2/3 285/2/3
f 287/2/3 285/2/3 264/2/3
f 287/8/3 286/8/3 285/8/3
f 288/8/3 286/8/3 287/8/3
f 289/1/3 276/1/3 275/1/3
f 290/1/3 274/1/3 276/1/3
f 290/1/3 276/1/3 289/1/3
f 290/1/3 264/1/3 274/1/3
f 290/2/3 288/2/3 287/2/3
f 290/2/3 287/2/3 264/2/3
f 291/2/3 288/2/3 290/2/3
f 292/1/4 293/1/4 295/1/4
f 295/1/4 293/1/4 296/1/4
f 296/1/4 293/1/4 297/1/4
f 297/1/4 293/1/4 298/1/4
f 298/1/4 293/1/4 300/1/4
f 299/1/4 300/1/4 302/1/4
f 301/1/4 302/1/4 303/1/4
f 293/2/4 294/2/4 304/2/4
f 303/1/4 302/1/4 304/1/4
f 300/1/4 293/1/4 304/1/4
f 302/1/4 300/1/4 304/1/4
f 304/2/4 294/2/4 305/2/4
f 306/2/4 307/2/4 308/2/4
f 308/2/4 307/2/4 309/2/4
f 310/4/4 311/4/4 313/4/4
f 312/4/4 313/4/4 314/4/4
f 313/4/4 311/4/4 315/4/4
f 314/4/4 313/4/4 315/4/4
f 315/4/4 311/4/4 316/4/4
f 316/4/4 311/4/4 317/4/4
f 318/5/4 319/5/4 321/5/4
f 321/5/4 319/5/4 322/5/4
f 320/5/4 321/5/4 322/5/4
f 322/5/4 319/5/4 323/5/4
f 320/5/4 322/5/4 324/5/4
f 324/5/4 322/5/4 325/5/4
f 320/5/4 324/5/4 326/5/4
f 326/5/4 324/5/4 327/5/4
f 320/5/4 326/5/4 328/5/4
f 328/5/4 329/5/4 330/5/4
f 330/5/4 331/5/4 332/5/4
f 330/5/4 332/5/4 334/5/4
f 332/5/4 333/5/4 334/5/4
f 320/5/4 328/5/4 334/5/4
f 328/5/4 330/5/4 334/5/4
f 334/5/4 333/5/4 335/5/4
f 335/5/4 333/5/4 336/5/4
f 336/5/4 333/5/4 337/5/4
f 342/1/5 339/1/5 338/1/5
f 343/1/5 339/1/5 342/1/5
f 344/1/5 341/1/5 340/1/5
f 345/1/5 341/1/5 344/1/5
f 350/1/5 347/1/5 346/1/5
f 351/1/5 347/1/5 350/1/5
f 352/1/5 349/1/5 348/1/5
f 353/1/5 349/1/5 352/1/5
f 356/1/5 355/1/5 354/1/5
f 357/1/5 355/1/5 356/1/5
f 362/2/5 359/2/5 358/2/5
f 363/2/5 359/2/5 362/2/5
f 364/6/5 360/6/5 359/6/5
f 364/2/5 359/2/5 363/2/5
f 365/2/5 361/2/5 360/2/5
f 365/6/5 360/6/5 364/6/5
f 366/2/5 361/2/5 365/2/5
f 367/2/5 361/2/5 366/2/5
f 368/2/5 361/2/5 367/2/5
f 369/2/5 361/2/5 368/2/5
f 370/2/5 361/2/5 369/2/5
f 371/2/5 361/2/5 370/2/5
f 372/2/5 361/2/5 371/2/5
f 373/2/5 361/2/5 372/2/5
f 374/2/5 361/2/5 373/2/5
f 375/2/5 361/2/5 374/2/5
f 378/2/5 377/2/5 376/2/5
f 379/2/5 377/2/5 378/2/5
f 382/5/5 381/5/5 380/5/5
f 383/5/5 381/5/5 382/5/5
f 384/5/5 382/5/5 380/5/5
f 384/4/5 383/4/5 382/4/5
f 385/4/5 383/4/5 384/4/5
f 386/4/5 383/4/5 385/4/5
f 387/5/5 381/5/5 383/5/5
f 387/4/5 383/4/5 386/4/5
f 388/5/5 384/5/5 380/5/5
f 389/5/5 381/5/5 387/5/5
f 390/5/5 388/5/5 380/5/5
f 390/1/5 389/1/5 388/1/5
f 391/5/5 381/5/5 389/5/5
f 391/1/5 389/1/5 390/1/5
f 392/5/5 390/5/5 380/5/5
f 392/5/5 391/5/5 390/5/5
f 393/5/5 381/5/5 391/5/5
f 393/5/5 391/5/5 392/5/5
f 396/5/5 395/5/5 394/5/5
f 397/5/5 395/5/5 396/5/5
f 402/5/5 399/5/5 398/5/5
f 403/5/5 399/5/5 402/5/5
f 404/5/5 401/5/5 400/5/5
f 405/5/5 401/5/5 404/5/5
f 410/5/5 407/5/5 406/5/5
f 411/5/5 407/5/5 410/5/5
f 412/5/5 409/5/5 408/5/5
f 413/5/5 409/5/5 412/5/5
f 418/5/5 415/5/5 414/5/5
f 419/5/5 415/5/5 418/5/5
f 420/5/5 417/5/5 416/5/5
f 421/5/5 417/5/5 420/5/5
f 426/4/5 423/4/5 422/4/5
f 427/4/5 423/4/5 426/4/5
f 428/4/5 425/4/5 424/4/5
f 429/4/5 425/4/5 428/4/5
f 430/5/5 427/5/5 426/5/5
f 431/5/5 427/5/5 430/5/5
f 432/5/5 429/5/5 428/5/5
f 433/5/5 429/5/5 432/5/5
f 440/5/5 435/5/5 434/5/5
f 441/5/5 435/5/5 440/5/5
f 442/5/5 437/5/5 436/5/5
f 443/5/5 437/5/5 442/5/5
f 446/5/5 439/5/5 438/5/5
f 447/5/5 439/5/5 446/5/5
f 448/5/5 445/5/5 444/5/5
f 449/5/5 445/5/5 448/5/5
f 454/5/5 451/5/5 450/5/5
f 455/5/5 451/5/5 454/5/5
f 456/5/5 453/5/5 452/5/5
f 457/5/5 453/5/5 456/5/5
f 462/5/5 459/5/5 458/5/5
f 463/5/5 459/5/5 462/5/5
f 464/5/5 461/5/5 460/5/5
f 465/5/5 461/5/5 464/5/5
f 466/5/6 467/5/6 470/5/6
f 470/5/6 467/5/6 471/5/6
f 468/5/6 469/5/6 472/5/6
f 472/5/6 469/5/6 473/5/6
f 474/5/6 475/5/6 476/5/6
f 476/5/6 475/5/6 477/5/6
f 478/5/6 479/5/6 482/5/6
f 482/5/6 479/5/6 483/5/6
f 480/5/6 481/5/6 484/5/6
f 484/5/6 481/5/6 485/5/6
f 486/5/6 487/5/6 488/5/6
f 488/5/6 487/5/6 489/5/6
f 488/4/6 489/4/6 490/4/6
f 490/4/6 489/4/6 491/4/6
f 491/4/6 489/4/6 492/4/6
f 492/4/6 489/4/6 493/4/6
f 490/5/6 491/5/6 494/5/6
f 494/5/6 491/5/6 495/5/6
f 492/5/6 493/5/6 496/5/6
f 496/5/6 493/5/6 497/5/6
f 498/5/6 499/5/6 502/5/6
f 502/5/6 499/5/6 503/5/6
f 500/5/6 501/5/6 504/5/6
f 504/5/6 501/5/6 505/5/6
