# MagicaVoxel @ Ephtracy

# group
o 

# material
mtllib Wolf-6.mtl
usemtl palette

# normals
vn -1 0 0
vn 1 0 0
vn 0 0 1
vn 0 0 -1
vn 0 -1 0
vn 0 1 0

# texcoords
vt 0.962891 0.5
vt 0.966797 0.5

# verts
v -1.5 0.3 1.1
v -1.5 0.3 0.4
v -1.5 0.4 1.1
v -1.5 0.4 1
v -1.5 0.5 1
v -1.5 0.5 0.8
v -1.5 1.5 0.8
v -1.5 1.5 0.4
v -1.3 0.3 1.1
v -1.3 0.3 1
v -1.3 0.4 1.1
v -1.3 0.4 1
v -1.1 0.3 1.1
v -1.1 0.3 1
v -1.1 0.4 1.1
v -1.1 0.4 1
v -1.4 0.3 1.1
v -1.4 0.3 1
v -1.4 0.4 1.1
v -1.4 0.4 1
v -1.2 0.3 1.1
v -1.2 0.3 1
v -1.2 0.4 1.1
v -1.2 0.4 1
v -1 0.3 1.1
v -1 0.3 0.4
v -1 0.4 1.1
v -1 0.4 1
v -1 0.5 1
v -1 0.5 0.8
v -1 1.5 0.8
v -1 1.5 0.4
v -1.5 0.3 1.1
v -1.5 0.4 1.1
v -1.4 0.3 1.1
v -1.4 0.4 1.1
v -1.3 0.3 1.1
v -1.3 0.4 1.1
v -1.2 0.3 1.1
v -1.2 0.4 1.1
v -1.1 0.3 1.1
v -1.1 0.4 1.1
v -1 0.3 1.1
v -1 0.4 1.1
v -1.5 0.4 1
v -1.5 0.5 1
v -1.4 0.3 1
v -1.4 0.4 1
v -1.3 0.3 1
v -1.3 0.4 1
v -1.2 0.3 1
v -1.2 0.4 1
v -1.1 0.3 1
v -1.1 0.4 1
v -1 0.4 1
v -1 0.5 1
v -1.5 0.5 0.8
v -1.5 1.5 0.8
v -1.4 0.5 0.8
v -1.1 0.5 0.8
v -1 0.5 0.8
v -1 1.5 0.8
v -1.5 0.3 0.4
v -1.5 1.5 0.4
v -1 0.3 0.4
v -1 1.5 0.4
v -1.5 0.3 1.1
v -1.4 0.3 1.1
v -1.3 0.3 1.1
v -1.2 0.3 1.1
v -1.1 0.3 1.1
v -1 0.3 1.1
v -1.4 0.3 1
v -1.3 0.3 1
v -1.2 0.3 1
v -1.1 0.3 1
v -1.4 0.3 0.9
v -1.3 0.3 0.9
v -1.2 0.3 0.9
v -1.1 0.3 0.9
v -1.4 0.3 0.5
v -1.1 0.3 0.5
v -1.5 0.3 0.4
v -1 0.3 0.4
v -1.5 0.4 1.1
v -1.4 0.4 1.1
v -1.3 0.4 1.1
v -1.2 0.4 1.1
v -1.1 0.4 1.1
v -1 0.4 1.1
v -1.5 0.4 1
v -1.4 0.4 1
v -1.3 0.4 1
v -1.2 0.4 1
v -1.1 0.4 1
v -1 0.4 1
v -1.5 0.5 1
v -1 0.5 1
v -1.4 0.5 0.9
v -1.1 0.5 0.9
v -1.5 0.5 0.8
v -1.4 0.5 0.8
v -1.1 0.5 0.8
v -1 0.5 0.8
v -1.5 1.5 0.8
v -1 1.5 0.8
v -1.4 1.5 0.7
v -1.1 1.5 0.7
v -1.4 1.5 0.5
v -1.1 1.5 0.5
v -1.5 1.5 0.4
v -1 1.5 0.4

# faces
f 3/2/1 2/2/1 1/2/1
f 4/2/1 2/2/1 3/2/1
f 5/2/1 2/2/1 4/2/1
f 6/2/1 2/2/1 5/2/1
f 7/2/1 2/2/1 6/2/1
f 8/2/1 2/2/1 7/2/1
f 11/1/1 10/1/1 9/1/1
f 12/1/1 10/1/1 11/1/1
f 15/2/1 14/2/1 13/2/1
f 16/2/1 14/2/1 15/2/1
f 17/2/2 18/2/2 19/2/2
f 19/2/2 18/2/2 20/2/2
f 21/1/2 22/1/2 23/1/2
f 23/1/2 22/1/2 24/1/2
f 25/2/2 26/2/2 27/2/2
f 27/2/2 26/2/2 28/2/2
f 28/2/2 26/2/2 29/2/2
f 29/2/2 26/2/2 30/2/2
f 30/2/2 26/2/2 31/2/2
f 31/2/2 26/2/2 32/2/2
f 35/2/3 34/2/3 33/2/3
f 36/2/3 34/2/3 35/2/3
f 39/1/3 38/1/3 37/1/3
f 40/1/3 38/1/3 39/1/3
f 43/2/3 42/2/3 41/2/3
f 44/2/3 42/2/3 43/2/3
f 48/2/3 46/2/3 45/2/3
f 49/2/3 48/2/3 47/2/3
f 50/2/3 46/2/3 48/2/3
f 50/2/3 48/2/3 49/2/3
f 52/2/3 46/2/3 50/2/3
f 53/2/3 52/2/3 51/2/3
f 54/2/3 46/2/3 52/2/3
f 54/2/3 52/2/3 53/2/3
f 55/2/3 46/2/3 54/2/3
f 56/2/3 46/2/3 55/2/3
f 59/2/3 58/2/3 57/2/3
f 60/2/3 58/2/3 59/2/3
f 61/2/3 58/2/3 60/2/3
f 62/2/3 58/2/3 61/2/3
f 63/2/4 64/2/4 65/2/4
f 65/2/4 64/2/4 66/2/4
f 73/2/5 68/2/5 67/2/5
f 74/1/5 70/1/5 69/1/5
f 75/1/5 70/1/5 74/1/5
f 76/2/5 72/2/5 71/2/5
f 77/2/5 73/2/5 67/2/5
f 77/2/5 74/2/5 73/2/5
f 78/1/5 75/1/5 74/1/5
f 78/2/5 74/2/5 77/2/5
f 79/2/5 76/2/5 75/2/5
f 79/1/5 75/1/5 78/1/5
f 80/2/5 72/2/5 76/2/5
f 80/2/5 76/2/5 79/2/5
f 81/2/5 77/2/5 67/2/5
f 81/1/5 78/1/5 77/1/5
f 81/1/5 80/1/5 79/1/5
f 81/1/5 79/1/5 78/1/5
f 82/2/5 72/2/5 80/2/5
f 82/1/5 80/1/5 81/1/5
f 83/2/5 81/2/5 67/2/5
f 83/2/5 82/2/5 81/2/5
f 84/2/5 72/2/5 82/2/5
f 84/2/5 82/2/5 83/2/5
f 85/2/6 86/2/6 91/2/6
f 91/2/6 86/2/6 92/2/6
f 87/1/6 88/1/6 93/1/6
f 93/1/6 88/1/6 94/1/6
f 89/2/6 90/2/6 95/2/6
f 95/2/6 90/2/6 96/2/6
f 97/2/6 98/2/6 99/2/6
f 99/2/6 98/2/6 100/2/6
f 97/2/6 99/2/6 101/2/6
f 99/1/6 100/1/6 102/1/6
f 101/2/6 99/2/6 102/2/6
f 100/2/6 98/2/6 103/2/6
f 102/1/6 100/1/6 103/1/6
f 103/2/6 98/2/6 104/2/6
f 105/2/6 106/2/6 107/2/6
f 107/2/6 106/2/6 108/2/6
f 105/2/6 107/2/6 109/2/6
f 107/1/6 108/1/6 109/1/6
f 108/2/6 106/2/6 110/2/6
f 109/1/6 108/1/6 110/1/6
f 105/2/6 109/2/6 111/2/6
f 109/2/6 110/2/6 111/2/6
f 110/2/6 106/2/6 112/2/6
f 111/2/6 110/2/6 112/2/6
