# MagicaVoxel @ Ephtracy

# group
o 

# material
mtllib Warrior(parts 6)-1.mtl
usemtl palette

# normals
vn -1 0 0
vn 1 0 0
vn 0 0 1
vn 0 0 -1
vn 0 -1 0
vn 0 1 0

# texcoords
vt 0.0332031 0.5
vt 0.373047 0.5
vt 0.865234 0.5
vt 0.978516 0.5
vt 0.986328 0.5

# verts
v -5.1 2.5 2.6
v -5.1 2.5 1
v -5.1 2.6 2.6
v -5.1 2.6 2.4
v -5.1 2.6 1.2
v -5.1 2.6 1
v -5.1 2.7 2.4
v -5.1 2.7 2.3
v -5.1 2.7 1.3
v -5.1 2.7 1.2
v -5.1 2.8 2.3
v -5.1 2.8 1.3
v -5.1 3.9 2.3
v -5.1 3.9 1.3
v -5.1 4 2.4
v -5.1 4 2.3
v -5.1 4 1.3
v -5.1 4 1.2
v -5.1 4.1 2.6
v -5.1 4.1 2.4
v -5.1 4.1 1.2
v -5.1 4.1 1
v -5.1 4.2 2.6
v -5.1 4.2 1
v -5 2.6 2.6
v -5 2.6 2.4
v -5 2.6 1.2
v -5 2.6 1
v -5 2.7 2.6
v -5 2.7 2.4
v -5 2.7 2.3
v -5 2.7 1.3
v -5 2.7 1.2
v -5 2.7 1
v -5 2.8 2.3
v -5 2.8 1.3
v -5 2.9 2.4
v -5 2.9 2.2
v -5 2.9 1.4
v -5 2.9 1.2
v -5 3.8 2.4
v -5 3.8 2.2
v -5 3.8 1.4
v -5 3.8 1.2
v -5 3.9 2.3
v -5 3.9 1.3
v -5 4 2.6
v -5 4 2.4
v -5 4 2.3
v -5 4 1.3
v -5 4 1.2
v -5 4 1
v -5 4.1 2.6
v -5 4.1 2.4
v -5 4.1 1.2
v -5 4.1 1
v -4.9 4.9 -0.2
v -4.9 4.9 -1.9
v -4.9 6.3 -0.2
v -4.9 6.3 -1.9
v -4.8 3 -0.3
v -4.8 3 -1.8
v -4.8 4.9 -0.3
v -4.8 4.9 -1.8
v -4.8 6.3 -0.2
v -4.8 6.3 -1.9
v -4.8 6.4 -0.2
v -4.8 6.4 -1.9
v -4.7 6.4 -0.2
v -4.7 6.4 -1.9
v -4.7 6.5 -0.2
v -4.7 6.5 -1.9
v -4.6 5.4 0
v -4.6 5.4 -0.2
v -4.6 6.3 0
v -4.6 6.3 -0.2
v -4.6 6.5 -0.2
v -4.6 6.5 -1.9
v -4.6 6.6 -0.2
v -4.6 6.6 -1.9
v -4.5 3.1 2.3
v -4.5 3.1 2.2
v -4.5 3.6 2.3
v -4.5 3.6 2.2
v -4.5 5.6 0.0999999
v -4.5 5.6 0
v -4.5 6.3 0.0999999
v -4.5 6.3 0
v -4.5 6.3 -0.2
v -4.5 6.4 0
v -4.5 6.4 -0.2
v -4.4 3.2 2.4
v -4.4 3.2 2.3
v -4.4 3.2 1.4
v -4.4 3.2 -0.3
v -4.4 3.4 1.4
v -4.4 3.4 -0.3
v -4.4 3.5 2.4
v -4.4 3.5 2.3
v -4.4 6.6 -0.2
v -4.4 6.6 -1.9
v -4.4 6.7 -0.2
v -4.4 6.7 -1.9
v -4.3 6.3 0.0999999
v -4.3 6.3 0
v -4.3 6.4 0.0999999
v -4.3 6.4 0
v -4.3 6.4 -0.2
v -4.3 6.5 0
v -4.3 6.5 -0.2
v -4.1 6.4 0.0999999
v -4.1 6.4 0
v -4.1 6.5 0.0999999
v -4.1 6.5 0
v -4.1 6.5 -0.2
v -4.1 6.6 0
v -4.1 6.6 -0.2
v -3.6 4.7 -0.2
v -3.6 4.7 -1.9
v -3.6 4.9 -0.2
v -3.6 4.9 -1.9
v -4.2 3.2 2.4
v -4.2 3.2 2.3
v -4.2 3.2 1.4
v -4.2 3.2 -0.3
v -4.2 3.4 1.4
v -4.2 3.4 -0.3
v -4.2 3.5 2.4
v -4.2 3.5 2.3
v -4.1 3.1 2.3
v -4.1 3.1 2.2
v -4.1 3.6 2.3
v -4.1 3.6 2.2
v -3.8 5.6 0.0999999
v -3.8 5.6 0
v -3.8 5.7 0.0999999
v -3.8 5.7 0
v -3.7 3 -0.3
v -3.7 3 -1.8
v -3.7 4.9 -0.3
v -3.7 4.9 -1.8
v -3.7 5.4 0
v -3.7 5.4 -0.2
v -3.7 5.5 0
v -3.7 5.5 -0.2
v -3.7 5.7 0.0999999
v -3.7 5.7 0
v -3.7 5.8 0.0999999
v -3.7 5.8 0
v -3.6 2.6 2.6
v -3.6 2.6 2.4
v -3.6 2.6 1.2
v -3.6 2.6 1
v -3.6 2.7 2.6
v -3.6 2.7 2.4
v -3.6 2.7 2.3
v -3.6 2.7 1.3
v -3.6 2.7 1.2
v -3.6 2.7 1
v -3.6 2.8 2.3
v -3.6 2.8 1.3
v -3.6 2.9 2.4
v -3.6 2.9 2.2
v -3.6 2.9 1.4
v -3.6 2.9 1.2
v -3.6 3.8 2.4
v -3.6 3.8 2.2
v -3.6 3.8 1.4
v -3.6 3.8 1.2
v -3.6 3.9 2.3
v -3.6 3.9 1.3
v -3.6 4 2.6
v -3.6 4 2.4
v -3.6 4 2.3
v -3.6 4 1.3
v -3.6 4 1.2
v -3.6 4 1
v -3.6 4.1 2.6
v -3.6 4.1 2.4
v -3.6 4.1 1.2
v -3.6 4.1 1
v -3.6 5.8 0.0999999
v -3.6 5.8 0
v -3.6 5.9 0.0999999
v -3.6 5.9 0
v -3.5 2.5 2.6
v -3.5 2.5 1
v -3.5 2.6 2.6
v -3.5 2.6 2.4
v -3.5 2.6 1.2
v -3.5 2.6 1
v -3.5 2.7 2.4
v -3.5 2.7 2.3
v -3.5 2.7 1.3
v -3.5 2.7 1.2
v -3.5 2.8 2.3
v -3.5 2.8 1.3
v -3.5 3.9 2.3
v -3.5 3.9 1.3
v -3.5 4 2.4
v -3.5 4 2.3
v -3.5 4 1.3
v -3.5 4 1.2
v -3.5 4.1 2.6
v -3.5 4.1 2.4
v -3.5 4.1 1.2
v -3.5 4.1 1
v -3.5 4.2 2.6
v -3.5 4.2 1
v -3.5 4.7 -0.8
v -3.5 4.7 -1.9
v -3.5 4.9 -0.8
v -3.5 4.9 -0.9
v -3.5 4.9 -1.8
v -3.5 5.3 -0.9
v -3.5 5.3 -1
v -3.5 5.5 0
v -3.5 5.5 -0.2
v -3.5 5.6 0
v -3.5 5.6 -0.2
v -3.5 5.8 -1
v -3.5 5.8 -1.1
v -3.5 5.9 0.0999999
v -3.5 5.9 0
v -3.5 6 0.0999999
v -3.5 6 0
v -3.5 6.3 -1.1
v -3.5 6.3 -1.2
v -3.5 6.6 -1.2
v -3.5 6.6 -1.8
v -3.5 6.7 -1.2
v -3.5 6.7 -1.9
v -3.4 4.7 -0.2
v -3.4 4.7 -0.8
v -3.4 4.9 -0.3
v -3.4 4.9 -0.8
v -3.4 4.9 -0.9
v -3.4 5.3 -0.9
v -3.4 5.3 -1
v -3.4 5.6 0
v -3.4 5.6 -0.2
v -3.4 5.6 -0.3
v -3.4 5.8 -0.0999999
v -3.4 5.8 -0.2
v -3.4 5.8 -1
v -3.4 5.8 -1.1
v -3.4 6 0.0999999
v -3.4 6 0
v -3.4 6 -0.0999999
v -3.4 6.3 -1.1
v -3.4 6.3 -1.2
v -3.4 6.5 0.0999999
v -3.4 6.5 0
v -3.4 6.5 -0.2
v -3.4 6.6 0
v -3.4 6.6 -0.2
v -3.4 6.6 -1.2
v -3.4 6.7 -0.2
v -3.4 6.7 -1.2
v -5.1 2.5 2.6
v -5.1 2.6 2.6
v -5.1 4.1 2.6
v -5.1 4.2 2.6
v -5 2.6 2.6
v -5 2.7 2.6
v -5 4 2.6
v -5 4.1 2.6
v -3.6 2.6 2.6
v -3.6 2.7 2.6
v -3.6 4 2.6
v -3.6 4.1 2.6
v -3.5 2.5 2.6
v -3.5 2.6 2.6
v -3.5 4.1 2.6
v -3.5 4.2 2.6
v -5.1 2.6 2.4
v -5.1 2.7 2.4
v -5.1 4 2.4
v -5.1 4.1 2.4
v -5 2.6 2.4
v -5 2.7 2.4
v -5 2.9 2.4
v -5 3.8 2.4
v -5 4 2.4
v -5 4.1 2.4
v -4.4 3.2 2.4
v -4.4 3.5 2.4
v -4.2 3.2 2.4
v -4.2 3.5 2.4
v -3.6 2.6 2.4
v -3.6 2.7 2.4
v -3.6 2.9 2.4
v -3.6 3.8 2.4
v -3.6 4 2.4
v -3.6 4.1 2.4
v -3.5 2.6 2.4
v -3.5 2.7 2.4
v -3.5 4 2.4
v -3.5 4.1 2.4
v -5.1 2.7 2.3
v -5.1 2.8 2.3
v -5.1 3.9 2.3
v -5.1 4 2.3
v -5 2.7 2.3
v -5 2.8 2.3
v -5 3.9 2.3
v -5 4 2.3
v -4.5 3.1 2.3
v -4.5 3.6 2.3
v -4.4 3.2 2.3
v -4.4 3.5 2.3
v -4.2 3.2 2.3
v -4.2 3.5 2.3
v -4.1 3.1 2.3
v -4.1 3.6 2.3
v -3.6 2.7 2.3
v -3.6 2.8 2.3
v -3.6 3.9 2.3
v -3.6 4 2.3
v -3.5 2.7 2.3
v -3.5 2.8 2.3
v -3.5 3.9 2.3
v -3.5 4 2.3
v -5 2.9 2.2
v -5 3.8 2.2
v -4.5 3.1 2.2
v -4.5 3.6 2.2
v -4.1 3.1 2.2
v -4.1 3.6 2.2
v -3.6 2.9 2.2
v -3.6 3.8 2.2
v -4.5 5.6 0.0999999
v -4.5 6.3 0.0999999
v -4.3 6.3 0.0999999
v -4.3 6.4 0.0999999
v -4.1 6.4 0.0999999
v -4.1 6.5 0.0999999
v -3.8 5.6 0.0999999
v -3.8 5.7 0.0999999
v -3.7 5.7 0.0999999
v -3.7 5.8 0.0999999
v -3.6 5.8 0.0999999
v -3.6 5.9 0.0999999
v -3.5 5.9 0.0999999
v -3.5 6 0.0999999
v -3.4 6 0.0999999
v -3.4 6.5 0.0999999
v -4.6 5.4 0
v -4.6 6.3 0
v -4.5 5.6 0
v -4.5 6.3 0
v -4.5 6.4 0
v -4.3 6.3 0
v -4.3 6.4 0
v -4.3 6.5 0
v -4.1 6.4 0
v -4.1 6.5 0
v -4.1 6.6 0
v -3.8 5.6 0
v -3.8 5.7 0
v -3.7 5.4 0
v -3.7 5.5 0
v -3.7 5.7 0
v -3.7 5.8 0
v -3.6 5.8 0
v -3.6 5.9 0
v -3.5 5.5 0
v -3.5 5.6 0
v -3.5 5.9 0
v -3.5 6 0
v -3.4 5.6 0
v -3.4 6 0
v -3.4 6.5 0
v -3.4 6.6 0
v -4.9 4.9 -0.2
v -4.9 6.3 -0.2
v -4.8 6.3 -0.2
v -4.8 6.4 -0.2
v -4.7 6.4 -0.2
v -4.7 6.5 -0.2
v -4.6 5.4 -0.2
v -4.6 6.3 -0.2
v -4.6 6.5 -0.2
v -4.6 6.6 -0.2
v -4.5 6.3 -0.2
v -4.5 6.4 -0.2
v -4.4 6.6 -0.2
v -4.4 6.7 -0.2
v -4.3 6.4 -0.2
v -4.3 6.5 -0.2
v -4.1 6.5 -0.2
v -4.1 6.6 -0.2
v -3.7 5.4 -0.2
v -3.7 5.5 -0.2
v -3.6 4.7 -0.2
v -3.6 4.9 -0.2
v -3.5 5.5 -0.2
v -3.5 5.6 -0.2
v -3.4 4.7 -0.2
v -3.4 5.6 -0.2
v -3.4 6.6 -0.2
v -3.4 6.7 -0.2
v -4.8 3 -0.3
v -4.8 4.9 -0.3
v -4.4 3.2 -0.3
v -4.4 3.4 -0.3
v -4.2 3.2 -0.3
v -4.2 3.4 -0.3
v -3.7 3 -0.3
v -3.7 4.9 -0.3
v -5 2.9 1.4
v -5 3.8 1.4
v -4.4 3.2 1.4
v -4.4 3.4 1.4
v -4.2 3.2 1.4
v -4.2 3.4 1.4
v -3.6 2.9 1.4
v -3.6 3.8 1.4
v -5.1 2.7 1.3
v -5.1 2.8 1.3
v -5.1 3.9 1.3
v -5.1 4 1.3
v -5 2.7 1.3
v -5 2.8 1.3
v -5 3.9 1.3
v -5 4 1.3
v -3.6 2.7 1.3
v -3.6 2.8 1.3
v -3.6 3.9 1.3
v -3.6 4 1.3
v -3.5 2.7 1.3
v -3.5 2.8 1.3
v -3.5 3.9 1.3
v -3.5 4 1.3
v -5.1 2.6 1.2
v -5.1 2.7 1.2
v -5.1 4 1.2
v -5.1 4.1 1.2
v -5 2.6 1.2
v -5 2.7 1.2
v -5 2.9 1.2
v -5 3.8 1.2
v -5 4 1.2
v -5 4.1 1.2
v -3.6 2.6 1.2
v -3.6 2.7 1.2
v -3.6 2.9 1.2
v -3.6 3.8 1.2
v -3.6 4 1.2
v -3.6 4.1 1.2
v -3.5 2.6 1.2
v -3.5 2.7 1.2
v -3.5 4 1.2
v -3.5 4.1 1.2
v -5.1 2.5 1
v -5.1 2.6 1
v -5.1 4.1 1
v -5.1 4.2 1
v -5 2.6 1
v -5 2.7 1
v -5 4 1
v -5 4.1 1
v -3.6 2.6 1
v -3.6 2.7 1
v -3.6 4 1
v -3.6 4.1 1
v -3.5 2.5 1
v -3.5 2.6 1
v -3.5 4.1 1
v -3.5 4.2 1
v -3.5 4.7 -0.8
v -3.5 4.9 -0.8
v -3.4 4.7 -0.8
v -3.4 4.9 -0.8
v -3.5 4.9 -0.9
v -3.5 5.3 -0.9
v -3.4 4.9 -0.9
v -3.4 5.3 -0.9
v -3.5 5.3 -1
v -3.5 5.8 -1
v -3.4 5.3 -1
v -3.4 5.8 -1
v -3.5 5.8 -1.1
v -3.5 6.3 -1.1
v -3.4 5.8 -1.1
v -3.4 6.3 -1.1
v -3.5 6.3 -1.2
v -3.5 6.6 -1.2
v -3.5 6.7 -1.2
v -3.4 6.3 -1.2
v -3.4 6.6 -1.2
v -3.4 6.7 -1.2
v -4.8 3 -1.8
v -4.8 4.9 -1.8
v -3.7 3 -1.8
v -3.7 4.9 -1.8
v -4.9 4.9 -1.9
v -4.9 6.3 -1.9
v -4.8 6.3 -1.9
v -4.8 6.4 -1.9
v -4.7 6.4 -1.9
v -4.7 6.5 -1.9
v -4.6 6.5 -1.9
v -4.6 6.6 -1.9
v -4.4 6.6 -1.9
v -4.4 6.7 -1.9
v -3.6 4.7 -1.9
v -3.6 4.9 -1.9
v -3.5 4.7 -1.9
v -3.5 6.7 -1.9
v -5.1 2.5 2.6
v -3.5 2.5 2.6
v -5.1 2.5 1
v -3.5 2.5 1
v -4.8 3 -0.3
v -3.7 3 -0.3
v -4.8 3 -1.8
v -3.7 3 -1.8
v -4.5 3.1 2.3
v -4.1 3.1 2.3
v -4.5 3.1 2.2
v -4.1 3.1 2.2
v -4.4 3.2 2.4
v -4.2 3.2 2.4
v -4.4 3.2 2.3
v -4.2 3.2 2.3
v -4.4 3.2 1.4
v -4.2 3.2 1.4
v -4.4 3.2 -0.3
v -4.2 3.2 -0.3
v -5 3.8 2.4
v -3.6 3.8 2.4
v -5 3.8 2.2
v -3.6 3.8 2.2
v -5 3.8 1.4
v -3.6 3.8 1.4
v -5 3.8 1.2
v -3.6 3.8 1.2
v -5.1 3.9 2.3
v -5 3.9 2.3
v -3.6 3.9 2.3
v -3.5 3.9 2.3
v -5.1 3.9 1.3
v -5 3.9 1.3
v -3.6 3.9 1.3
v -3.5 3.9 1.3
v -5 4 2.6
v -3.6 4 2.6
v -5.1 4 2.4
v -5 4 2.4
v -3.6 4 2.4
v -3.5 4 2.4
v -5.1 4 2.3
v -5 4 2.3
v -3.6 4 2.3
v -3.5 4 2.3
v -5.1 4 1.3
v -5 4 1.3
v -3.6 4 1.3
v -3.5 4 1.3
v -5.1 4 1.2
v -5 4 1.2
v -3.6 4 1.2
v -3.5 4 1.2
v -5 4 1
v -3.6 4 1
v -5.1 4.1 2.6
v -5 4.1 2.6
v -3.6 4.1 2.6
v -3.5 4.1 2.6
v -5.1 4.1 2.4
v -5 4.1 2.4
v -3.6 4.1 2.4
v -3.5 4.1 2.4
v -5.1 4.1 1.2
v -5 4.1 1.2
v -3.6 4.1 1.2
v -3.5 4.1 1.2
v -5.1 4.1 1
v -5 4.1 1
v -3.6 4.1 1
v -3.5 4.1 1
v -3.6 4.7 -0.2
v -3.4 4.7 -0.2
v -3.5 4.7 -0.8
v -3.4 4.7 -0.8
v -3.6 4.7 -1.9
v -3.5 4.7 -1.9
v -4.9 4.9 -0.2
v -3.6 4.9 -0.2
v -4.8 4.9 -0.3
v -3.7 4.9 -0.3
v -3.5 4.9 -0.8
v -3.4 4.9 -0.8
v -3.5 4.9 -0.9
v -3.4 4.9 -0.9
v -4.8 4.9 -1.8
v -3.7 4.9 -1.8
v -4.9 4.9 -1.9
v -3.6 4.9 -1.9
v -3.5 5.3 -0.9
v -3.4 5.3 -0.9
v -3.5 5.3 -1
v -3.4 5.3 -1
v -4.6 5.4 0
v -3.7 5.4 0
v -4.6 5.4 -0.2
v -3.7 5.4 -0.2
v -3.7 5.5 0
v -3.5 5.5 0
v -3.7 5.5 -0.2
v -3.5 5.5 -0.2
v -4.5 5.6 0.0999999
v -3.8 5.6 0.0999999
v -4.5 5.6 0
v -3.8 5.6 0
v -3.5 5.6 0
v -3.4 5.6 0
v -3.5 5.6 -0.2
v -3.4 5.6 -0.2
v -3.8 5.7 0.0999999
v -3.7 5.7 0.0999999
v -3.8 5.7 0
v -3.7 5.7 0
v -3.7 5.8 0.0999999
v -3.6 5.8 0.0999999
v -3.7 5.8 0
v -3.6 5.8 0
v -3.5 5.8 -1
v -3.4 5.8 -1
v -3.5 5.8 -1.1
v -3.4 5.8 -1.1
v -3.6 5.9 0.0999999
v -3.5 5.9 0.0999999
v -3.6 5.9 0
v -3.5 5.9 0
v -3.5 6 0.0999999
v -3.4 6 0.0999999
v -3.5 6 0
v -3.4 6 0
v -3.5 6.3 -1.1
v -3.4 6.3 -1.1
v -3.5 6.3 -1.2
v -3.4 6.3 -1.2
v -5.1 2.6 2.6
v -5 2.6 2.6
v -3.6 2.6 2.6
v -3.5 2.6 2.6
v -5.1 2.6 2.4
v -5 2.6 2.4
v -3.6 2.6 2.4
v -3.5 2.6 2.4
v -5.1 2.6 1.2
v -5 2.6 1.2
v -3.6 2.6 1.2
v -3.5 2.6 1.2
v -5.1 2.6 1
v -5 2.6 1
v -3.6 2.6 1
v -3.5 2.6 1
v -5 2.7 2.6
v -3.6 2.7 2.6
v -5.1 2.7 2.4
v -5 2.7 2.4
v -3.6 2.7 2.4
v -3.5 2.7 2.4
v -5.1 2.7 2.3
v -5 2.7 2.3
v -3.6 2.7 2.3
v -3.5 2.7 2.3
v -5.1 2.7 1.3
v -5 2.7 1.3
v -3.6 2.7 1.3
v -3.5 2.7 1.3
v -5.1 2.7 1.2
v -5 2.7 1.2
v -3.6 2.7 1.2
v -3.5 2.7 1.2
v -5 2.7 1
v -3.6 2.7 1
v -5.1 2.8 2.3
v -5 2.8 2.3
v -3.6 2.8 2.3
v -3.5 2.8 2.3
v -5.1 2.8 1.3
v -5 2.8 1.3
v -3.6 2.8 1.3
v -3.5 2.8 1.3
v -5 2.9 2.4
v -3.6 2.9 2.4
v -5 2.9 2.2
v -3.6 2.9 2.2
v -5 2.9 1.4
v -3.6 2.9 1.4
v -5 2.9 1.2
v -3.6 2.9 1.2
v -4.4 3.4 1.4
v -4.2 3.4 1.4
v -4.4 3.4 -0.3
v -4.2 3.4 -0.3
v -4.4 3.5 2.4
v -4.2 3.5 2.4
v -4.4 3.5 2.3
v -4.2 3.5 2.3
v -4.5 3.6 2.3
v -4.1 3.6 2.3
v -4.5 3.6 2.2
v -4.1 3.6 2.2
v -5.1 4.2 2.6
v -3.5 4.2 2.6
v -5.1 4.2 1
v -3.5 4.2 1
v -4.5 6.3 0.0999999
v -4.3 6.3 0.0999999
v -4.6 6.3 0
v -4.5 6.3 0
v -4.3 6.3 0
v -4.9 6.3 -0.2
v -4.8 6.3 -0.2
v -4.6 6.3 -0.2
v -4.5 6.3 -0.2
v -4.9 6.3 -1.9
v -4.8 6.3 -1.9
v -4.3 6.4 0.0999999
v -4.1 6.4 0.0999999
v -4.5 6.4 0
v -4.3 6.4 0
v -4.1 6.4 0
v -4.8 6.4 -0.2
v -4.7 6.4 -0.2
v -4.5 6.4 -0.2
v -4.3 6.4 -0.2
v -4.8 6.4 -1.9
v -4.7 6.4 -1.9
v -4.1 6.5 0.0999999
v -3.4 6.5 0.0999999
v -4.3 6.5 0
v -4.1 6.5 0
v -3.4 6.5 0
v -4.7 6.5 -0.2
v -4.6 6.5 -0.2
v -4.3 6.5 -0.2
v -4.1 6.5 -0.2
v -4.7 6.5 -1.9
v -4.6 6.5 -1.9
v -4.1 6.6 0
v -3.4 6.6 0
v -4.6 6.6 -0.2
v -4.4 6.6 -0.2
v -4.1 6.6 -0.2
v -3.4 6.6 -0.2
v -4.6 6.6 -1.9
v -4.4 6.6 -1.9
v -4.4 6.7 -0.2
v -3.4 6.7 -0.2
v -3.5 6.7 -1.2
v -3.4 6.7 -1.2
v -4.4 6.7 -1.9
v -3.5 6.7 -1.9

# faces
f 3/4/1 2/4/1 1/4/1
f 4/4/1 2/4/1 3/4/1
f 5/4/1 2/4/1 4/4/1
f 6/4/1 2/4/1 5/4/1
f 7/4/1 5/4/1 4/4/1
f 8/4/1 5/4/1 7/4/1
f 9/4/1 5/4/1 8/4/1
f 10/4/1 5/4/1 9/4/1
f 11/4/1 9/4/1 8/4/1
f 12/4/1 9/4/1 11/4/1
f 16/4/1 14/4/1 13/4/1
f 17/4/1 14/4/1 16/4/1
f 20/4/1 17/4/1 16/4/1
f 20/4/1 18/4/1 17/4/1
f 20/4/1 16/4/1 15/4/1
f 21/4/1 18/4/1 20/4/1
f 23/4/1 21/4/1 20/4/1
f 23/4/1 22/4/1 21/4/1
f 23/4/1 20/4/1 19/4/1
f 24/4/1 22/4/1 23/4/1
f 29/4/1 26/4/1 25/4/1
f 30/4/1 26/4/1 29/4/1
f 33/4/1 28/4/1 27/4/1
f 34/4/1 28/4/1 33/4/1
f 35/4/1 31/4/1 30/4/1
f 36/4/1 33/4/1 32/4/1
f 37/4/1 35/4/1 30/4/1
f 37/4/1 36/4/1 35/4/1
f 38/4/1 36/4/1 37/4/1
f 39/4/1 36/4/1 38/4/1
f 40/4/1 33/4/1 36/4/1
f 40/4/1 36/4/1 39/4/1
f 42/4/1 39/4/1 38/4/1
f 43/4/1 39/4/1 42/4/1
f 45/4/1 42/4/1 41/4/1
f 45/4/1 44/4/1 43/4/1
f 45/4/1 43/4/1 42/4/1
f 46/4/1 44/4/1 45/4/1
f 48/4/1 45/4/1 41/4/1
f 49/4/1 45/4/1 48/4/1
f 50/4/1 44/4/1 46/4/1
f 51/4/1 44/4/1 50/4/1
f 53/4/1 48/4/1 47/4/1
f 54/4/1 48/4/1 53/4/1
f 55/4/1 52/4/1 51/4/1
f 56/4/1 52/4/1 55/4/1
f 59/5/1 58/5/1 57/5/1
f 60/5/1 58/5/1 59/5/1
f 63/1/1 62/1/1 61/1/1
f 64/1/1 62/1/1 63/1/1
f 67/5/1 66/5/1 65/5/1
f 68/5/1 66/5/1 67/5/1
f 71/5/1 70/5/1 69/5/1
f 72/5/1 70/5/1 71/5/1
f 75/5/1 74/5/1 73/5/1
f 76/5/1 74/5/1 75/5/1
f 79/5/1 78/5/1 77/5/1
f 80/5/1 78/5/1 79/5/1
f 83/4/1 82/4/1 81/4/1
f 84/4/1 82/4/1 83/4/1
f 87/5/1 86/5/1 85/5/1
f 88/5/1 86/5/1 87/5/1
f 90/5/1 89/5/1 88/5/1
f 91/5/1 89/5/1 90/5/1
f 96/2/1 95/2/1 94/2/1
f 97/2/1 95/2/1 96/2/1
f 98/4/1 93/4/1 92/4/1
f 99/4/1 93/4/1 98/4/1
f 102/5/1 101/5/1 100/5/1
f 103/5/1 101/5/1 102/5/1
f 106/5/1 105/5/1 104/5/1
f 107/5/1 105/5/1 106/5/1
f 109/5/1 108/5/1 107/5/1
f 110/5/1 108/5/1 109/5/1
f 113/5/1 112/5/1 111/5/1
f 114/5/1 112/5/1 113/5/1
f 116/5/1 115/5/1 114/5/1
f 117/5/1 115/5/1 116/5/1
f 120/5/1 119/5/1 118/5/1
f 121/5/1 119/5/1 120/5/1
f 124/2/2 125/2/2 126/2/2
f 126/2/2 125/2/2 127/2/2
f 122/4/2 123/4/2 128/4/2
f 128/4/2 123/4/2 129/4/2
f 130/4/2 131/4/2 132/4/2
f 132/4/2 131/4/2 133/4/2
f 134/5/2 135/5/2 136/5/2
f 136/5/2 135/5/2 137/5/2
f 138/1/2 139/1/2 140/1/2
f 140/1/2 139/1/2 141/1/2
f 142/5/2 143/5/2 144/5/2
f 144/5/2 143/5/2 145/5/2
f 146/5/2 147/5/2 148/5/2
f 148/5/2 147/5/2 149/5/2
f 150/4/2 151/4/2 154/4/2
f 154/4/2 151/4/2 155/4/2
f 152/4/2 153/4/2 158/4/2
f 158/4/2 153/4/2 159/4/2
f 155/4/2 156/4/2 160/4/2
f 157/4/2 158/4/2 161/4/2
f 155/4/2 160/4/2 162/4/2
f 160/4/2 161/4/2 162/4/2
f 162/4/2 161/4/2 163/4/2
f 163/4/2 161/4/2 164/4/2
f 161/4/2 158/4/2 165/4/2
f 164/4/2 161/4/2 165/4/2
f 163/4/2 164/4/2 167/4/2
f 167/4/2 164/4/2 168/4/2
f 166/4/2 167/4/2 170/4/2
f 168/4/2 169/4/2 170/4/2
f 167/4/2 168/4/2 170/4/2
f 170/4/2 169/4/2 171/4/2
f 166/4/2 170/4/2 173/4/2
f 173/4/2 170/4/2 174/4/2
f 171/4/2 169/4/2 175/4/2
f 175/4/2 169/4/2 176/4/2
f 172/4/2 173/4/2 178/4/2
f 178/4/2 173/4/2 179/4/2
f 176/4/2 177/4/2 180/4/2
f 180/4/2 177/4/2 181/4/2
f 182/5/2 183/5/2 184/5/2
f 184/5/2 183/5/2 185/5/2
f 186/4/2 187/4/2 188/4/2
f 188/4/2 187/4/2 189/4/2
f 189/4/2 187/4/2 190/4/2
f 190/4/2 187/4/2 191/4/2
f 189/4/2 190/4/2 192/4/2
f 192/4/2 190/4/2 193/4/2
f 193/4/2 190/4/2 194/4/2
f 194/4/2 190/4/2 195/4/2
f 193/4/2 194/4/2 196/4/2
f 196/4/2 194/4/2 197/4/2
f 198/4/2 199/4/2 201/4/2
f 201/4/2 199/4/2 202/4/2
f 201/4/2 202/4/2 205/4/2
f 202/4/2 203/4/2 205/4/2
f 200/4/2 201/4/2 205/4/2
f 205/4/2 203/4/2 206/4/2
f 205/4/2 206/4/2 208/4/2
f 206/4/2 207/4/2 208/4/2
f 204/4/2 205/4/2 208/4/2
f 208/4/2 207/4/2 209/4/2
f 210/5/2 211/5/2 212/5/2
f 212/5/2 211/5/2 213/5/2
f 213/5/2 211/5/2 214/5/2
f 213/3/2 214/3/2 215/3/2
f 215/3/2 214/3/2 216/3/2
f 217/5/2 218/5/2 219/5/2
f 219/5/2 218/5/2 220/5/2
f 216/3/2 214/3/2 221/3/2
f 221/3/2 214/3/2 222/3/2
f 223/5/2 224/5/2 225/5/2
f 225/5/2 224/5/2 226/5/2
f 222/3/2 214/3/2 227/3/2
f 227/3/2 214/3/2 228/3/2
f 228/3/2 214/3/2 229/3/2
f 214/5/2 211/5/2 230/5/2
f 229/3/2 214/3/2 230/3/2
f 229/5/2 230/5/2 231/5/2
f 230/5/2 211/5/2 232/5/2
f 231/5/2 230/5/2 232/5/2
f 233/5/2 234/5/2 235/5/2
f 235/5/2 234/5/2 236/5/2
f 235/3/2 236/3/2 238/3/2
f 236/3/2 237/3/2 238/3/2
f 233/5/2 235/5/2 241/5/2
f 238/3/2 239/3/2 242/3/2
f 235/3/2 238/3/2 242/3/2
f 241/5/2 235/5/2 242/5/2
f 240/5/2 241/5/2 243/5/2
f 241/3/2 242/3/2 244/3/2
f 243/5/2 241/5/2 244/5/2
f 242/3/2 239/3/2 245/3/2
f 244/3/2 242/3/2 245/3/2
f 240/5/2 243/5/2 248/5/2
f 243/3/2 244/3/2 249/3/2
f 245/3/2 246/3/2 249/3/2
f 248/5/2 243/5/2 249/5/2
f 244/3/2 245/3/2 249/3/2
f 248/3/2 249/3/2 250/3/2
f 249/3/2 246/3/2 250/3/2
f 247/5/2 248/5/2 252/5/2
f 250/3/2 251/3/2 253/3/2
f 252/5/2 248/5/2 253/5/2
f 248/3/2 250/3/2 253/3/2
f 253/3/2 251/3/2 254/3/2
f 253/5/2 254/5/2 255/5/2
f 254/3/2 251/3/2 256/3/2
f 255/5/2 254/5/2 256/5/2
f 256/3/2 251/3/2 257/3/2
f 256/5/2 257/5/2 258/5/2
f 258/5/2 257/5/2 259/5/2
f 264/4/3 261/4/3 260/4/3
f 267/4/3 263/4/3 262/4/3
f 268/4/3 265/4/3 264/4/3
f 268/4/3 264/4/3 260/4/3
f 269/4/3 265/4/3 268/4/3
f 270/4/3 267/4/3 266/4/3
f 271/4/3 263/4/3 267/4/3
f 271/4/3 267/4/3 270/4/3
f 272/4/3 268/4/3 260/4/3
f 273/4/3 268/4/3 272/4/3
f 274/4/3 263/4/3 271/4/3
f 275/4/3 263/4/3 274/4/3
f 280/4/3 277/4/3 276/4/3
f 281/4/3 277/4/3 280/4/3
f 284/4/3 279/4/3 278/4/3
f 285/4/3 279/4/3 284/4/3
f 288/4/3 287/4/3 286/4/3
f 289/4/3 287/4/3 288/4/3
f 291/4/3 282/4/3 281/4/3
f 292/4/3 282/4/3 291/4/3
f 293/4/3 284/4/3 283/4/3
f 294/4/3 284/4/3 293/4/3
f 296/4/3 291/4/3 290/4/3
f 297/4/3 291/4/3 296/4/3
f 298/4/3 295/4/3 294/4/3
f 299/4/3 295/4/3 298/4/3
f 304/4/3 301/4/3 300/4/3
f 305/4/3 301/4/3 304/4/3
f 306/4/3 303/4/3 302/4/3
f 307/4/3 303/4/3 306/4/3
f 310/4/3 309/4/3 308/4/3
f 311/4/3 309/4/3 310/4/3
f 312/4/3 310/4/3 308/4/3
f 313/4/3 309/4/3 311/4/3
f 314/4/3 312/4/3 308/4/3
f 314/4/3 313/4/3 312/4/3
f 315/4/3 309/4/3 313/4/3
f 315/4/3 313/4/3 314/4/3
f 320/4/3 317/4/3 316/4/3
f 321/4/3 317/4/3 320/4/3
f 322/4/3 319/4/3 318/4/3
f 323/4/3 319/4/3 322/4/3
f 326/4/3 325/4/3 324/4/3
f 327/4/3 325/4/3 326/4/3
f 328/4/3 326/4/3 324/4/3
f 329/4/3 325/4/3 327/4/3
f 330/4/3 328/4/3 324/4/3
f 330/4/3 329/4/3 328/4/3
f 331/4/3 325/4/3 329/4/3
f 331/4/3 329/4/3 330/4/3
f 334/5/3 333/5/3 332/5/3
f 336/5/3 335/5/3 334/5/3
f 338/5/3 334/5/3 332/5/3
f 338/5/3 337/5/3 336/5/3
f 338/5/3 336/5/3 334/5/3
f 339/5/3 337/5/3 338/5/3
f 340/5/3 337/5/3 339/5/3
f 341/5/3 337/5/3 340/5/3
f 342/5/3 337/5/3 341/5/3
f 343/5/3 337/5/3 342/5/3
f 344/5/3 337/5/3 343/5/3
f 345/5/3 337/5/3 344/5/3
f 346/5/3 337/5/3 345/5/3
f 347/5/3 337/5/3 346/5/3
f 350/5/3 349/5/3 348/5/3
f 351/5/3 349/5/3 350/5/3
f 353/5/3 352/5/3 351/5/3
f 354/5/3 352/5/3 353/5/3
f 356/5/3 355/5/3 354/5/3
f 357/5/3 355/5/3 356/5/3
f 359/5/3 350/5/3 348/5/3
f 361/5/3 359/5/3 348/5/3
f 361/5/3 360/5/3 359/5/3
f 362/5/3 360/5/3 361/5/3
f 363/5/3 360/5/3 362/5/3
f 365/5/3 364/5/3 363/5/3
f 365/5/3 363/5/3 362/5/3
f 367/5/3 365/5/3 362/5/3
f 367/5/3 366/5/3 365/5/3
f 368/5/3 366/5/3 367/5/3
f 369/5/3 366/5/3 368/5/3
f 371/5/3 370/5/3 369/5/3
f 371/5/3 369/5/3 368/5/3
f 372/5/3 370/5/3 371/5/3
f 373/5/3 358/5/3 357/5/3
f 374/5/3 358/5/3 373/5/3
f 377/5/3 376/5/3 375/5/3
f 379/5/3 378/5/3 377/5/3
f 381/5/3 377/5/3 375/5/3
f 381/5/3 380/5/3 379/5/3
f 381/5/3 379/5/3 377/5/3
f 382/5/3 380/5/3 381/5/3
f 383/5/3 380/5/3 382/5/3
f 385/5/3 384/5/3 383/5/3
f 385/5/3 383/5/3 382/5/3
f 386/5/3 384/5/3 385/5/3
f 387/5/3 384/5/3 386/5/3
f 389/5/3 387/5/3 386/5/3
f 389/5/3 388/5/3 387/5/3
f 390/5/3 388/5/3 389/5/3
f 391/5/3 388/5/3 390/5/3
f 392/5/3 388/5/3 391/5/3
f 393/5/3 381/5/3 375/5/3
f 396/5/3 393/5/3 375/5/3
f 396/5/3 394/5/3 393/5/3
f 397/5/3 394/5/3 396/5/3
f 397/5/3 396/5/3 395/5/3
f 399/5/3 397/5/3 395/5/3
f 399/5/3 398/5/3 397/5/3
f 400/5/3 398/5/3 399/5/3
f 401/5/3 388/5/3 392/5/3
f 402/5/3 388/5/3 401/5/3
f 405/1/3 404/1/3 403/1/3
f 406/1/3 404/1/3 405/1/3
f 407/1/3 405/1/3 403/1/3
f 408/1/3 404/1/3 406/1/3
f 409/1/3 407/1/3 403/1/3
f 409/1/3 408/1/3 407/1/3
f 410/1/3 404/1/3 408/1/3
f 410/1/3 408/1/3 409/1/3
f 411/4/4 412/4/4 413/4/4
f 413/4/4 412/4/4 414/4/4
f 411/4/4 413/4/4 415/4/4
f 414/4/4 412/4/4 416/4/4
f 411/4/4 415/4/4 417/4/4
f 415/4/4 416/4/4 417/4/4
f 416/4/4 412/4/4 418/4/4
f 417/4/4 416/4/4 418/4/4
f 419/4/4 420/4/4 423/4/4
f 423/4/4 420/4/4 424/4/4
f 421/4/4 422/4/4 425/4/4
f 425/4/4 422/4/4 426/4/4
f 427/4/4 428/4/4 431/4/4
f 431/4/4 428/4/4 432/4/4
f 429/4/4 430/4/4 433/4/4
f 433/4/4 430/4/4 434/4/4
f 435/4/4 436/4/4 439/4/4
f 439/4/4 436/4/4 440/4/4
f 437/4/4 438/4/4 443/4/4
f 443/4/4 438/4/4 444/4/4
f 440/4/4 441/4/4 446/4/4
f 446/4/4 441/4/4 447/4/4
f 442/4/4 443/4/4 448/4/4
f 448/4/4 443/4/4 449/4/4
f 445/4/4 446/4/4 451/4/4
f 451/4/4 446/4/4 452/4/4
f 449/4/4 450/4/4 453/4/4
f 453/4/4 450/4/4 454/4/4
f 455/4/4 456/4/4 459/4/4
f 457/4/4 458/4/4 462/4/4
f 459/4/4 460/4/4 463/4/4
f 455/4/4 459/4/4 463/4/4
f 463/4/4 460/4/4 464/4/4
f 461/4/4 462/4/4 465/4/4
f 462/4/4 458/4/4 466/4/4
f 465/4/4 462/4/4 466/4/4
f 455/4/4 463/4/4 467/4/4
f 467/4/4 463/4/4 468/4/4
f 466/4/4 458/4/4 469/4/4
f 469/4/4 458/4/4 470/4/4
f 471/5/4 472/5/4 473/5/4
f 473/5/4 472/5/4 474/5/4
f 475/3/4 476/3/4 477/3/4
f 477/3/4 476/3/4 478/3/4
f 479/3/4 480/3/4 481/3/4
f 481/3/4 480/3/4 482/3/4
f 483/3/4 484/3/4 485/3/4
f 485/3/4 484/3/4 486/3/4
f 487/3/4 488/3/4 490/3/4
f 488/5/4 489/5/4 491/5/4
f 490/3/4 488/3/4 491/3/4
f 491/5/4 489/5/4 492/5/4
f 493/1/4 494/1/4 495/1/4
f 495/1/4 494/1/4 496/1/4
f 497/5/4 498/5/4 499/5/4
f 499/5/4 500/5/4 501/5/4
f 501/5/4 502/5/4 503/5/4
f 503/5/4 504/5/4 505/5/4
f 497/5/4 499/5/4 508/5/4
f 505/5/4 506/5/4 508/5/4
f 503/5/4 505/5/4 508/5/4
f 501/5/4 503/5/4 508/5/4
f 499/5/4 501/5/4 508/5/4
f 507/5/4 508/5/4 509/5/4
f 508/5/4 506/5/4 510/5/4
f 509/5/4 508/5/4 510/5/4
f 513/4/5 512/4/5 511/4/5
f 514/4/5 512/4/5 513/4/5
f 517/1/5 516/1/5 515/1/5
f 518/1/5 516/1/5 517/1/5
f 521/4/5 520/4/5 519/4/5
f 522/4/5 520/4/5 521/4/5
f 525/4/5 524/4/5 523/4/5
f 526/4/5 524/4/5 525/4/5
f 529/2/5 528/2/5 527/2/5
f 530/2/5 528/2/5 529/2/5
f 533/4/5 532/4/5 531/4/5
f 534/4/5 532/4/5 533/4/5
f 537/4/5 536/4/5 535/4/5
f 538/4/5 536/4/5 537/4/5
f 543/4/5 540/4/5 539/4/5
f 544/4/5 540/4/5 543/4/5
f 545/4/5 542/4/5 541/4/5
f 546/4/5 542/4/5 545/4/5
f 550/4/5 548/4/5 547/4/5
f 551/4/5 548/4/5 550/4/5
f 553/4/5 550/4/5 549/4/5
f 554/4/5 550/4/5 553/4/5
f 555/4/5 552/4/5 551/4/5
f 556/4/5 552/4/5 555/4/5
f 561/4/5 558/4/5 557/4/5
f 562/4/5 558/4/5 561/4/5
f 563/4/5 560/4/5 559/4/5
f 564/4/5 560/4/5 563/4/5
f 565/4/5 563/4/5 562/4/5
f 566/4/5 563/4/5 565/4/5
f 571/4/5 568/4/5 567/4/5
f 572/4/5 568/4/5 571/4/5
f 573/4/5 570/4/5 569/4/5
f 574/4/5 570/4/5 573/4/5
f 579/4/5 576/4/5 575/4/5
f 580/4/5 576/4/5 579/4/5
f 581/4/5 578/4/5 577/4/5
f 582/4/5 578/4/5 581/4/5
f 585/5/5 584/5/5 583/5/5
f 586/5/5 584/5/5 585/5/5
f 587/5/5 585/5/5 583/5/5
f 588/5/5 585/5/5 587/5/5
f 591/5/5 590/5/5 589/5/5
f 592/5/5 590/5/5 591/5/5
f 595/3/5 594/3/5 593/3/5
f 596/3/5 594/3/5 595/3/5
f 597/5/5 591/5/5 589/5/5
f 598/5/5 590/5/5 592/5/5
f 599/5/5 597/5/5 589/5/5
f 599/5/5 598/5/5 597/5/5
f 600/5/5 590/5/5 598/5/5
f 600/5/5 598/5/5 599/5/5
f 603/3/5 602/3/5 601/3/5
f 604/3/5 602/3/5 603/3/5
f 607/5/5 606/5/5 605/5/5
f 608/5/5 606/5/5 607/5/5
f 611/5/5 610/5/5 609/5/5
f 612/5/5 610/5/5 611/5/5
f 615/5/5 614/5/5 613/5/5
f 616/5/5 614/5/5 615/5/5
f 619/5/5 618/5/5 617/5/5
f 620/5/5 618/5/5 619/5/5
f 623/5/5 622/5/5 621/5/5
f 624/5/5 622/5/5 623/5/5
f 627/5/5 626/5/5 625/5/5
f 628/5/5 626/5/5 627/5/5
f 631/3/5 630/3/5 629/3/5
f 632/3/5 630/3/5 631/3/5
f 635/5/5 634/5/5 633/5/5
f 636/5/5 634/5/5 635/5/5
f 639/5/5 638/5/5 637/5/5
f 640/5/5 638/5/5 639/5/5
f 643/3/5 642/3/5 641/3/5
f 644/3/5 642/3/5 643/3/5
f 645/4/6 646/4/6 649/4/6
f 649/4/6 646/4/6 650/4/6
f 647/4/6 648/4/6 651/4/6
f 651/4/6 648/4/6 652/4/6
f 653/4/6 654/4/6 657/4/6
f 657/4/6 654/4/6 658/4/6
f 655/4/6 656/4/6 659/4/6
f 659/4/6 656/4/6 660/4/6
f 661/4/6 662/4/6 664/4/6
f 664/4/6 662/4/6 665/4/6
f 663/4/6 664/4/6 667/4/6
f 667/4/6 664/4/6 668/4/6
f 665/4/6 666/4/6 669/4/6
f 669/4/6 666/4/6 670/4/6
f 671/4/6 672/4/6 675/4/6
f 675/4/6 672/4/6 676/4/6
f 673/4/6 674/4/6 677/4/6
f 677/4/6 674/4/6 678/4/6
f 676/4/6 677/4/6 679/4/6
f 679/4/6 677/4/6 680/4/6
f 681/4/6 682/4/6 685/4/6
f 685/4/6 682/4/6 686/4/6
f 683/4/6 684/4/6 687/4/6
f 687/4/6 684/4/6 688/4/6
f 689/4/6 690/4/6 691/4/6
f 691/4/6 690/4/6 692/4/6
f 693/4/6 694/4/6 695/4/6
f 695/4/6 694/4/6 696/4/6
f 697/2/6 698/2/6 699/2/6
f 699/2/6 698/2/6 700/2/6
f 701/4/6 702/4/6 703/4/6
f 703/4/6 702/4/6 704/4/6
f 705/4/6 706/4/6 707/4/6
f 707/4/6 706/4/6 708/4/6
f 709/4/6 710/4/6 711/4/6
f 711/4/6 710/4/6 712/4/6
f 713/5/6 714/5/6 716/5/6
f 716/5/6 714/5/6 717/5/6
f 715/5/6 716/5/6 720/5/6
f 720/5/6 716/5/6 721/5/6
f 718/5/6 719/5/6 722/5/6
f 722/5/6 719/5/6 723/5/6
f 724/5/6 725/5/6 727/5/6
f 727/5/6 725/5/6 728/5/6
f 726/5/6 727/5/6 731/5/6
f 731/5/6 727/5/6 732/5/6
f 729/5/6 730/5/6 733/5/6
f 733/5/6 730/5/6 734/5/6
f 735/5/6 736/5/6 738/5/6
f 738/5/6 736/5/6 739/5/6
f 737/5/6 738/5/6 742/5/6
f 742/5/6 738/5/6 743/5/6
f 740/5/6 741/5/6 744/5/6
f 744/5/6 741/5/6 745/5/6
f 746/5/6 747/5/6 750/5/6
f 750/5/6 747/5/6 751/5/6
f 748/5/6 749/5/6 752/5/6
f 752/5/6 749/5/6 753/5/6
f 754/5/6 755/5/6 756/5/6
f 756/5/6 755/5/6 757/5/6
f 754/5/6 756/5/6 758/5/6
f 758/5/6 756/5/6 759/5/6
