# MagicaVoxel @ Ephtracy

# group
o 

# material
mtllib mush.mtl
usemtl palette

# normals
vn -1 0 0
vn 1 0 0
vn 0 0 1
vn 0 0 -1
vn 0 -1 0
vn 0 1 0

# texcoords
vt 0.849609 0.5
vt 0.966797 0.5
vt 0.978516 0.5
vt 0.986328 0.5

# verts
v 3.4 0.8 1.1
v 3.4 0.8 -0.9
v 3.4 1 1.1
v 3.4 1 0.9
v 3.4 1 0.7
v 3.4 1 -0.5
v 3.4 1 -0.7
v 3.4 1 -0.9
v 3.4 1.1 0.7
v 3.4 1.1 0.6
v 3.4 1.1 -0.4
v 3.4 1.1 -0.5
v 3.4 1.2 0.9
v 3.4 1.2 0.7
v 3.4 1.2 0.6
v 3.4 1.2 0.5
v 3.4 1.2 -0.3
v 3.4 1.2 -0.4
v 3.4 1.2 -0.5
v 3.4 1.2 -0.7
v 3.4 1.3 0.5
v 3.4 1.3 0.4
v 3.4 1.3 -0.2
v 3.4 1.3 -0.3
v 3.4 1.4 0.7
v 3.4 1.4 0.5
v 3.4 1.4 0.4
v 3.4 1.4 -0.2
v 3.4 1.4 -0.3
v 3.4 1.4 -0.5
v 3.4 1.5 0.5
v 3.4 1.5 0.4
v 3.4 1.5 -0.2
v 3.4 1.5 -0.3
v 3.4 1.6 0.4
v 3.4 1.6 0.3
v 3.4 1.6 -0.1
v 3.4 1.6 -0.2
v 3.4 1.7 0.3
v 3.4 1.7 -0.1
v 3.5 0 0.8
v 3.5 0 0.5
v 3.5 0 -0.3
v 3.5 0 -0.6
v 3.5 0.3 0.5
v 3.5 0.3 -0.3
v 3.5 0.8 0.8
v 3.5 0.8 -0.6
v 3.5 1 0.7
v 3.5 1 -0.5
v 3.5 1.1 0.7
v 3.5 1.1 0.6
v 3.5 1.1 0.4
v 3.5 1.1 0.3
v 3.5 1.1 0
v 3.5 1.1 -0.1
v 3.5 1.1 -0.4
v 3.5 1.1 -0.5
v 3.5 1.2 0.6
v 3.5 1.2 0.5
v 3.5 1.2 0.4
v 3.5 1.2 -0.1
v 3.5 1.2 -0.2
v 3.5 1.2 -0.3
v 3.5 1.2 -0.4
v 3.5 1.3 0.5
v 3.5 1.3 0.4
v 3.5 1.3 0.3
v 3.5 1.3 0
v 3.5 1.3 -0.2
v 3.5 1.3 -0.3
v 3.5 1.4 0.4
v 3.5 1.4 -0.2
v 4 0 0.8
v 4 0 0.5
v 4 0 -0.3
v 4 0 -0.6
v 4 0.3 0.5
v 4 0.3 -0.3
v 4 0.8 0.8
v 4 0.8 -0.6
v 4.1 0.8 1.1
v 4.1 0.8 -0.9
v 4.1 1 1.1
v 4.1 1 0.9
v 4.1 1 -0.7
v 4.1 1 -0.9
v 4.1 1.2 0.9
v 4.1 1.2 0.7
v 4.1 1.2 -0.5
v 4.1 1.2 -0.7
v 4.1 1.4 0.7
v 4.1 1.4 0.5
v 4.1 1.4 -0.3
v 4.1 1.4 -0.5
v 4.1 1.5 0.5
v 4.1 1.5 0.4
v 4.1 1.5 -0.2
v 4.1 1.5 -0.3
v 4.1 1.6 0.4
v 4.1 1.6 0.3
v 4.1 1.6 -0.1
v 4.1 1.6 -0.2
v 4.1 1.7 0.3
v 4.1 1.7 -0.1
v 3.4 0.8 1.1
v 3.4 1 1.1
v 4.1 0.8 1.1
v 4.1 1 1.1
v 3.4 1 0.9
v 3.4 1.2 0.9
v 4.1 1 0.9
v 4.1 1.2 0.9
v 3.5 0 0.8
v 3.5 0.8 0.8
v 4 0 0.8
v 4 0.8 0.8
v 3.4 1.2 0.7
v 3.4 1.4 0.7
v 4.1 1.2 0.7
v 4.1 1.4 0.7
v 3.4 1.4 0.5
v 3.4 1.5 0.5
v 4.1 1.4 0.5
v 4.1 1.5 0.5
v 3.4 1.5 0.4
v 3.4 1.6 0.4
v 4.1 1.5 0.4
v 4.1 1.6 0.4
v 3.4 1.6 0.3
v 3.4 1.7 0.3
v 4.1 1.6 0.3
v 4.1 1.7 0.3
v 3.4 1.3 -0.2
v 3.4 1.4 -0.2
v 3.5 1.3 -0.2
v 3.5 1.4 -0.2
v 3.4 1.2 -0.3
v 3.4 1.3 -0.3
v 3.5 0 -0.3
v 3.5 0.3 -0.3
v 3.5 1.2 -0.3
v 3.5 1.3 -0.3
v 4 0 -0.3
v 4 0.3 -0.3
v 3.4 1.1 -0.4
v 3.4 1.2 -0.4
v 3.5 1.1 -0.4
v 3.5 1.2 -0.4
v 3.4 1 -0.5
v 3.4 1.1 -0.5
v 3.5 1 -0.5
v 3.5 1.1 -0.5
v 3.4 1 0.7
v 3.4 1.1 0.7
v 3.5 1 0.7
v 3.5 1.1 0.7
v 3.4 1.1 0.6
v 3.4 1.2 0.6
v 3.5 1.1 0.6
v 3.5 1.2 0.6
v 3.4 1.2 0.5
v 3.4 1.3 0.5
v 3.5 0 0.5
v 3.5 0.3 0.5
v 3.5 1.2 0.5
v 3.5 1.3 0.5
v 4 0 0.5
v 4 0.3 0.5
v 3.4 1.3 0.4
v 3.4 1.4 0.4
v 3.5 1.3 0.4
v 3.5 1.4 0.4
v 3.4 1.6 -0.1
v 3.4 1.7 -0.1
v 4.1 1.6 -0.1
v 4.1 1.7 -0.1
v 3.4 1.5 -0.2
v 3.4 1.6 -0.2
v 4.1 1.5 -0.2
v 4.1 1.6 -0.2
v 3.4 1.4 -0.3
v 3.4 1.5 -0.3
v 4.1 1.4 -0.3
v 4.1 1.5 -0.3
v 3.4 1.2 -0.5
v 3.4 1.4 -0.5
v 4.1 1.2 -0.5
v 4.1 1.4 -0.5
v 3.5 0 -0.6
v 3.5 0.8 -0.6
v 4 0 -0.6
v 4 0.8 -0.6
v 3.4 1 -0.7
v 3.4 1.2 -0.7
v 4.1 1 -0.7
v 4.1 1.2 -0.7
v 3.4 0.8 -0.9
v 3.4 1 -0.9
v 4.1 0.8 -0.9
v 4.1 1 -0.9
v 3.5 0 0.8
v 4 0 0.8
v 3.5 0 0.5
v 4 0 0.5
v 3.5 0 -0.3
v 4 0 -0.3
v 3.5 0 -0.6
v 4 0 -0.6
v 3.5 0.3 0.5
v 4 0.3 0.5
v 3.5 0.3 -0.3
v 4 0.3 -0.3
v 3.4 0.8 1.1
v 4.1 0.8 1.1
v 3.5 0.8 0.8
v 4 0.8 0.8
v 3.5 0.8 -0.6
v 4 0.8 -0.6
v 3.4 0.8 -0.9
v 4.1 0.8 -0.9
v 3.4 1.1 0.7
v 3.5 1.1 0.7
v 3.4 1.1 0.6
v 3.5 1.1 0.6
v 3.4 1.1 -0.4
v 3.5 1.1 -0.4
v 3.4 1.1 -0.5
v 3.5 1.1 -0.5
v 3.4 1.2 0.6
v 3.5 1.2 0.6
v 3.4 1.2 0.5
v 3.5 1.2 0.5
v 3.4 1.2 -0.3
v 3.5 1.2 -0.3
v 3.4 1.2 -0.4
v 3.5 1.2 -0.4
v 3.4 1.3 0.5
v 3.5 1.3 0.5
v 3.4 1.3 0.4
v 3.5 1.3 0.4
v 3.4 1.3 -0.2
v 3.5 1.3 -0.2
v 3.4 1.3 -0.3
v 3.5 1.3 -0.3
v 3.4 1.4 0.4
v 3.5 1.4 0.4
v 3.4 1.4 -0.2
v 3.5 1.4 -0.2
v 3.4 1 1.1
v 4.1 1 1.1
v 3.4 1 0.9
v 4.1 1 0.9
v 3.4 1 0.7
v 3.5 1 0.7
v 3.4 1 -0.5
v 3.5 1 -0.5
v 3.4 1 -0.7
v 4.1 1 -0.7
v 3.4 1 -0.9
v 4.1 1 -0.9
v 3.4 1.2 0.9
v 4.1 1.2 0.9
v 3.4 1.2 0.7
v 4.1 1.2 0.7
v 3.4 1.2 -0.5
v 4.1 1.2 -0.5
v 3.4 1.2 -0.7
v 4.1 1.2 -0.7
v 3.4 1.4 0.7
v 4.1 1.4 0.7
v 3.4 1.4 0.5
v 4.1 1.4 0.5
v 3.4 1.4 -0.3
v 4.1 1.4 -0.3
v 3.4 1.4 -0.5
v 4.1 1.4 -0.5
v 3.4 1.5 0.5
v 4.1 1.5 0.5
v 3.4 1.5 0.4
v 4.1 1.5 0.4
v 3.4 1.5 -0.2
v 4.1 1.5 -0.2
v 3.4 1.5 -0.3
v 4.1 1.5 -0.3
v 3.4 1.6 0.4
v 4.1 1.6 0.4
v 3.4 1.6 0.3
v 4.1 1.6 0.3
v 3.4 1.6 -0.1
v 4.1 1.6 -0.1
v 3.4 1.6 -0.2
v 4.1 1.6 -0.2
v 3.4 1.7 0.3
v 4.1 1.7 0.3
v 3.4 1.7 -0.1
v 4.1 1.7 -0.1

# faces
f 3/1/1 2/1/1 1/1/1
f 4/1/1 2/1/1 3/1/1
f 5/1/1 2/1/1 4/1/1
f 6/1/1 2/1/1 5/1/1
f 7/1/1 2/1/1 6/1/1
f 8/1/1 2/1/1 7/1/1
f 9/1/1 5/1/1 4/1/1
f 12/1/1 7/1/1 6/1/1
f 13/1/1 10/1/1 9/1/1
f 13/1/1 9/1/1 4/1/1
f 14/1/1 10/1/1 13/1/1
f 15/1/1 10/1/1 14/1/1
f 18/1/1 12/1/1 11/1/1
f 19/1/1 7/1/1 12/1/1
f 19/1/1 12/1/1 18/1/1
f 20/1/1 7/1/1 19/1/1
f 21/1/1 16/1/1 15/1/1
f 21/1/1 15/1/1 14/1/1
f 24/1/1 18/1/1 17/1/1
f 24/1/1 19/1/1 18/1/1
f 25/1/1 22/1/1 21/1/1
f 25/1/1 21/1/1 14/1/1
f 26/1/1 22/1/1 25/1/1
f 27/1/1 22/1/1 26/1/1
f 28/1/1 24/1/1 23/1/1
f 29/1/1 19/1/1 24/1/1
f 29/1/1 24/1/1 28/1/1
f 30/1/1 19/1/1 29/1/1
f 31/1/1 27/1/1 26/1/1
f 31/1/1 28/1/1 27/1/1
f 31/1/1 29/1/1 28/1/1
f 32/1/1 29/1/1 31/1/1
f 33/1/1 29/1/1 32/1/1
f 34/1/1 29/1/1 33/1/1
f 35/1/1 33/1/1 32/1/1
f 36/1/1 33/1/1 35/1/1
f 37/1/1 33/1/1 36/1/1
f 38/1/1 33/1/1 37/1/1
f 39/1/1 37/1/1 36/1/1
f 40/1/1 37/1/1 39/1/1
f 45/2/1 42/2/1 41/2/1
f 46/2/1 44/2/1 43/2/1
f 47/2/1 45/2/1 41/2/1
f 47/2/1 46/2/1 45/2/1
f 48/2/1 44/2/1 46/2/1
f 48/2/1 46/2/1 47/2/1
f 51/3/1 50/3/1 49/3/1
f 52/3/1 50/3/1 51/3/1
f 53/3/1 50/3/1 52/3/1
f 54/3/1 50/3/1 53/3/1
f 55/3/1 50/3/1 54/3/1
f 56/3/1 50/3/1 55/3/1
f 57/3/1 50/3/1 56/3/1
f 58/3/1 50/3/1 57/3/1
f 59/3/1 53/3/1 52/3/1
f 60/3/1 53/3/1 59/3/1
f 61/4/1 54/4/1 53/4/1
f 61/3/1 53/3/1 60/3/1
f 62/3/1 57/3/1 56/3/1
f 62/4/1 56/4/1 55/4/1
f 63/3/1 57/3/1 62/3/1
f 64/3/1 57/3/1 63/3/1
f 65/3/1 57/3/1 64/3/1
f 66/4/1 61/4/1 60/4/1
f 67/4/1 54/4/1 61/4/1
f 67/4/1 61/4/1 66/4/1
f 68/3/1 55/3/1 54/3/1
f 68/4/1 54/4/1 67/4/1
f 69/4/1 62/4/1 55/4/1
f 69/3/1 55/3/1 68/3/1
f 69/4/1 63/4/1 62/4/1
f 70/3/1 64/3/1 63/3/1
f 70/4/1 63/4/1 69/4/1
f 71/3/1 64/3/1 70/3/1
f 72/3/1 69/3/1 68/3/1
f 72/3/1 70/3/1 69/3/1
f 72/3/1 68/3/1 67/3/1
f 73/3/1 70/3/1 72/3/1
f 74/2/2 75/2/2 78/2/2
f 76/2/2 77/2/2 79/2/2
f 74/2/2 78/2/2 80/2/2
f 78/2/2 79/2/2 80/2/2
f 79/2/2 77/2/2 81/2/2
f 80/2/2 79/2/2 81/2/2
f 82/1/2 83/1/2 84/1/2
f 84/1/2 83/1/2 85/1/2
f 85/1/2 83/1/2 86/1/2
f 86/1/2 83/1/2 87/1/2
f 85/1/2 86/1/2 88/1/2
f 88/1/2 86/1/2 89/1/2
f 89/1/2 86/1/2 90/1/2
f 90/1/2 86/1/2 91/1/2
f 89/1/2 90/1/2 92/1/2
f 92/1/2 90/1/2 93/1/2
f 93/1/2 90/1/2 94/1/2
f 94/1/2 90/1/2 95/1/2
f 93/1/2 94/1/2 96/1/2
f 96/1/2 94/1/2 97/1/2
f 97/1/2 94/1/2 98/1/2
f 98/1/2 94/1/2 99/1/2
f 97/1/2 98/1/2 100/1/2
f 100/1/2 98/1/2 101/1/2
f 101/1/2 98/1/2 102/1/2
f 102/1/2 98/1/2 103/1/2
f 101/1/2 102/1/2 104/1/2
f 104/1/2 102/1/2 105/1/2
f 108/1/3 107/1/3 106/1/3
f 109/1/3 107/1/3 108/1/3
f 112/1/3 111/1/3 110/1/3
f 113/1/3 111/1/3 112/1/3
f 116/2/3 115/2/3 114/2/3
f 117/2/3 115/2/3 116/2/3
f 120/1/3 119/1/3 118/1/3
f 121/1/3 119/1/3 120/1/3
f 124/1/3 123/1/3 122/1/3
f 125/1/3 123/1/3 124/1/3
f 128/1/3 127/1/3 126/1/3
f 129/1/3 127/1/3 128/1/3
f 132/1/3 131/1/3 130/1/3
f 133/1/3 131/1/3 132/1/3
f 136/1/3 135/1/3 134/1/3
f 137/1/3 135/1/3 136/1/3
f 142/1/3 139/1/3 138/1/3
f 143/1/3 139/1/3 142/1/3
f 144/2/3 141/2/3 140/2/3
f 145/2/3 141/2/3 144/2/3
f 148/1/3 147/1/3 146/1/3
f 149/1/3 147/1/3 148/1/3
f 152/1/3 151/1/3 150/1/3
f 153/1/3 151/1/3 152/1/3
f 154/1/4 155/1/4 156/1/4
f 156/1/4 155/1/4 157/1/4
f 158/1/4 159/1/4 160/1/4
f 160/1/4 159/1/4 161/1/4
f 162/1/4 163/1/4 166/1/4
f 166/1/4 163/1/4 167/1/4
f 164/2/4 165/2/4 168/2/4
f 168/2/4 165/2/4 169/2/4
f 170/1/4 171/1/4 172/1/4
f 172/1/4 171/1/4 173/1/4
f 174/1/4 175/1/4 176/1/4
f 176/1/4 175/1/4 177/1/4
f 178/1/4 179/1/4 180/1/4
f 180/1/4 179/1/4 181/1/4
f 182/1/4 183/1/4 184/1/4
f 184/1/4 183/1/4 185/1/4
f 186/1/4 187/1/4 188/1/4
f 188/1/4 187/1/4 189/1/4
f 190/2/4 191/2/4 192/2/4
f 192/2/4 191/2/4 193/2/4
f 194/1/4 195/1/4 196/1/4
f 196/1/4 195/1/4 197/1/4
f 198/1/4 199/1/4 200/1/4
f 200/1/4 199/1/4 201/1/4
f 204/2/5 203/2/5 202/2/5
f 205/2/5 203/2/5 204/2/5
f 208/2/5 207/2/5 206/2/5
f 209/2/5 207/2/5 208/2/5
f 212/2/5 211/2/5 210/2/5
f 213/2/5 211/2/5 212/2/5
f 216/1/5 215/1/5 214/1/5
f 217/1/5 215/1/5 216/1/5
f 218/1/5 216/1/5 214/1/5
f 219/1/5 215/1/5 217/1/5
f 220/1/5 218/1/5 214/1/5
f 220/1/5 219/1/5 218/1/5
f 221/1/5 215/1/5 219/1/5
f 221/1/5 219/1/5 220/1/5
f 224/1/5 223/1/5 222/1/5
f 225/1/5 223/1/5 224/1/5
f 228/1/5 227/1/5 226/1/5
f 229/1/5 227/1/5 228/1/5
f 232/1/5 231/1/5 230/1/5
f 233/1/5 231/1/5 232/1/5
f 236/1/5 235/1/5 234/1/5
f 237/1/5 235/1/5 236/1/5
f 240/1/5 239/1/5 238/1/5
f 241/1/5 239/1/5 240/1/5
f 244/1/5 243/1/5 242/1/5
f 245/1/5 243/1/5 244/1/5
f 248/1/5 247/1/5 246/1/5
f 249/1/5 247/1/5 248/1/5
f 250/1/6 251/1/6 252/1/6
f 252/1/6 251/1/6 253/1/6
f 254/1/6 255/1/6 256/1/6
f 256/1/6 255/1/6 257/1/6
f 258/1/6 259/1/6 260/1/6
f 260/1/6 259/1/6 261/1/6
f 262/1/6 263/1/6 264/1/6
f 264/1/6 263/1/6 265/1/6
f 266/1/6 267/1/6 268/1/6
f 268/1/6 267/1/6 269/1/6
f 270/1/6 271/1/6 272/1/6
f 272/1/6 271/1/6 273/1/6
f 274/1/6 275/1/6 276/1/6
f 276/1/6 275/1/6 277/1/6
f 278/1/6 279/1/6 280/1/6
f 280/1/6 279/1/6 281/1/6
f 282/1/6 283/1/6 284/1/6
f 284/1/6 283/1/6 285/1/6
f 286/1/6 287/1/6 288/1/6
f 288/1/6 287/1/6 289/1/6
f 290/1/6 291/1/6 292/1/6
f 292/1/6 291/1/6 293/1/6
f 294/1/6 295/1/6 296/1/6
f 296/1/6 295/1/6 297/1/6
