# MagicaVoxel @ Ephtracy

# group
o 

# material
mtllib Tree1.mtl
usemtl palette

# normals
vn -1 0 0
vn 1 0 0
vn 0 0 1
vn 0 0 -1
vn 0 -1 0
vn 0 1 0

# texcoords
vt 0.373047 0.5
vt 0.888672 0.5

# verts
v 0.9 3.9 2.5
v 0.9 3.9 1.6
v 0.9 4.8 2.5
v 0.9 4.8 1.6
v 1.3 3 2.1
v 1.3 3 1.9
v 1.3 3.9 2.1
v 1.3 3.9 1.9
v 1.7 4.7 3.1
v 1.7 4.7 2.5
v 1.7 4.7 1.6
v 1.7 4.7 0.7
v 1.7 4.8 2.5
v 1.7 4.8 1.6
v 1.7 6.7 3.1
v 1.7 6.7 0.7
v 2.1 6.4 5.1
v 2.1 6.4 4
v 2.1 8 5.1
v 2.1 8 4
v 2.2 0 2.4
v 2.2 0 1.6
v 2.2 3 2.1
v 2.2 3 1.9
v 2.2 3.2 2.1
v 2.2 3.2 1.9
v 2.2 4.7 2.4
v 2.2 4.7 1.6
v 2.2 4.8 -4.76837e-007
v 2.2 4.8 -0.9
v 2.2 5.5 -4.76837e-007
v 2.2 5.5 -0.9
v 2.5 3.7 1.6
v 2.5 3.7 -0.5
v 2.5 3.9 1.6
v 2.5 3.9 -0.3
v 2.5 4.1 4.7
v 2.5 4.1 2.4
v 2.5 4.4 4.4
v 2.5 4.4 2.4
v 2.5 4.8 -0.3
v 2.5 4.8 -0.5
v 2.5 6.4 4.7
v 2.5 6.4 4.4
v 1.5 3.2 2.1
v 1.5 3.2 1.9
v 1.5 3.9 2.1
v 1.5 3.9 1.9
v 1.9 3.9 2.5
v 1.9 3.9 1.6
v 1.9 4.7 2.5
v 1.9 4.7 1.6
v 2.7 3.7 1.6
v 2.7 3.7 -0.5
v 2.7 3.9 1.6
v 2.7 3.9 -0.3
v 2.7 4.8 -0.3
v 2.7 4.8 -0.5
v 2.8 4.1 4.7
v 2.8 4.1 2.4
v 2.8 4.4 4.4
v 2.8 4.4 2.4
v 2.8 6.4 4.7
v 2.8 6.4 4.4
v 3 0 2.4
v 3 0 1.6
v 3 4.7 2.4
v 3 4.7 1.6
v 3 4.8 -4.76837e-007
v 3 4.8 -0.9
v 3 5.5 -4.76837e-007
v 3 5.5 -0.9
v 3.2 6.4 5.1
v 3.2 6.4 4
v 3.2 8 5.1
v 3.2 8 4
v 4 4.7 3.1
v 4 4.7 0.7
v 4 6.7 3.1
v 4 6.7 0.7
v 2.1 6.4 5.1
v 2.1 8 5.1
v 3.2 6.4 5.1
v 3.2 8 5.1
v 2.5 4.1 4.7
v 2.5 6.4 4.7
v 2.8 4.1 4.7
v 2.8 6.4 4.7
v 1.7 4.7 3.1
v 1.7 6.7 3.1
v 4 4.7 3.1
v 4 6.7 3.1
v 0.9 3.9 2.5
v 0.9 4.8 2.5
v 1.7 4.7 2.5
v 1.7 4.8 2.5
v 1.9 3.9 2.5
v 1.9 4.7 2.5
v 2.2 0 2.4
v 2.2 4.7 2.4
v 2.5 4.1 2.4
v 2.5 4.4 2.4
v 2.8 4.1 2.4
v 2.8 4.4 2.4
v 3 0 2.4
v 3 4.7 2.4
v 1.3 3 2.1
v 1.3 3.9 2.1
v 1.5 3.2 2.1
v 1.5 3.9 2.1
v 2.2 3 2.1
v 2.2 3.2 2.1
v 2.2 4.8 -4.76837e-007
v 2.2 5.5 -4.76837e-007
v 3 4.8 -4.76837e-007
v 3 5.5 -4.76837e-007
v 2.5 3.9 -0.3
v 2.5 4.8 -0.3
v 2.7 3.9 -0.3
v 2.7 4.8 -0.3
v 2.5 4.4 4.4
v 2.5 6.4 4.4
v 2.8 4.4 4.4
v 2.8 6.4 4.4
v 2.1 6.4 4
v 2.1 8 4
v 3.2 6.4 4
v 3.2 8 4
v 1.3 3 1.9
v 1.3 3.9 1.9
v 1.5 3.2 1.9
v 1.5 3.9 1.9
v 2.2 3 1.9
v 2.2 3.2 1.9
v 0.9 3.9 1.6
v 0.9 4.8 1.6
v 1.7 4.7 1.6
v 1.7 4.8 1.6
v 1.9 3.9 1.6
v 1.9 4.7 1.6
v 2.2 0 1.6
v 2.2 4.7 1.6
v 2.5 3.7 1.6
v 2.5 3.9 1.6
v 2.7 3.7 1.6
v 2.7 3.9 1.6
v 3 0 1.6
v 3 4.7 1.6
v 1.7 4.7 0.7
v 1.7 6.7 0.7
v 4 4.7 0.7
v 4 6.7 0.7
v 2.5 3.7 -0.5
v 2.5 4.8 -0.5
v 2.7 3.7 -0.5
v 2.7 4.8 -0.5
v 2.2 4.8 -0.9
v 2.2 5.5 -0.9
v 3 4.8 -0.9
v 3 5.5 -0.9
v 2.2 0 2.4
v 3 0 2.4
v 2.2 0 1.6
v 3 0 1.6
v 1.3 3 2.1
v 2.2 3 2.1
v 1.3 3 1.9
v 2.2 3 1.9
v 2.5 3.7 1.6
v 2.7 3.7 1.6
v 2.5 3.7 -0.5
v 2.7 3.7 -0.5
v 0.9 3.9 2.5
v 1.9 3.9 2.5
v 1.3 3.9 2.1
v 1.5 3.9 2.1
v 1.3 3.9 1.9
v 1.5 3.9 1.9
v 0.9 3.9 1.6
v 1.9 3.9 1.6
v 2.5 4.1 4.7
v 2.8 4.1 4.7
v 2.5 4.1 2.4
v 2.8 4.1 2.4
v 1.7 4.7 3.1
v 4 4.7 3.1
v 1.7 4.7 2.5
v 1.9 4.7 2.5
v 2.2 4.7 2.4
v 3 4.7 2.4
v 1.7 4.7 1.6
v 1.9 4.7 1.6
v 2.2 4.7 1.6
v 3 4.7 1.6
v 1.7 4.7 0.7
v 4 4.7 0.7
v 2.2 4.8 -4.76837e-007
v 3 4.8 -4.76837e-007
v 2.5 4.8 -0.3
v 2.7 4.8 -0.3
v 2.5 4.8 -0.5
v 2.7 4.8 -0.5
v 2.2 4.8 -0.9
v 3 4.8 -0.9
v 2.1 6.4 5.1
v 3.2 6.4 5.1
v 2.5 6.4 4.7
v 2.8 6.4 4.7
v 2.5 6.4 4.4
v 2.8 6.4 4.4
v 2.1 6.4 4
v 3.2 6.4 4
v 1.5 3.2 2.1
v 2.2 3.2 2.1
v 1.5 3.2 1.9
v 2.2 3.2 1.9
v 2.5 3.9 1.6
v 2.7 3.9 1.6
v 2.5 3.9 -0.3
v 2.7 3.9 -0.3
v 2.5 4.4 4.4
v 2.8 4.4 4.4
v 2.5 4.4 2.4
v 2.8 4.4 2.4
v 0.9 4.8 2.5
v 1.7 4.8 2.5
v 0.9 4.8 1.6
v 1.7 4.8 1.6
v 2.2 5.5 -4.76837e-007
v 3 5.5 -4.76837e-007
v 2.2 5.5 -0.9
v 3 5.5 -0.9
v 1.7 6.7 3.1
v 4 6.7 3.1
v 1.7 6.7 0.7
v 4 6.7 0.7
v 2.1 8 5.1
v 3.2 8 5.1
v 2.1 8 4
v 3.2 8 4

# faces
f 3/2/1 2/2/1 1/2/1
f 4/2/1 2/2/1 3/2/1
f 7/1/1 6/1/1 5/1/1
f 8/1/1 6/1/1 7/1/1
f 13/2/1 10/2/1 9/2/1
f 14/2/1 12/2/1 11/2/1
f 15/2/1 13/2/1 9/2/1
f 15/2/1 14/2/1 13/2/1
f 16/2/1 12/2/1 14/2/1
f 16/2/1 14/2/1 15/2/1
f 19/2/1 18/2/1 17/2/1
f 20/2/1 18/2/1 19/2/1
f 23/1/1 22/1/1 21/1/1
f 24/1/1 22/1/1 23/1/1
f 25/1/1 23/1/1 21/1/1
f 26/1/1 22/1/1 24/1/1
f 27/1/1 25/1/1 21/1/1
f 27/1/1 26/1/1 25/1/1
f 28/1/1 22/1/1 26/1/1
f 28/1/1 26/1/1 27/1/1
f 31/2/1 30/2/1 29/2/1
f 32/2/1 30/2/1 31/2/1
f 35/1/1 34/1/1 33/1/1
f 36/1/1 34/1/1 35/1/1
f 39/1/1 38/1/1 37/1/1
f 40/1/1 38/1/1 39/1/1
f 41/1/1 34/1/1 36/1/1
f 42/1/1 34/1/1 41/1/1
f 43/1/1 39/1/1 37/1/1
f 44/1/1 39/1/1 43/1/1
f 45/1/2 46/1/2 47/1/2
f 47/1/2 46/1/2 48/1/2
f 49/2/2 50/2/2 51/2/2
f 51/2/2 50/2/2 52/2/2
f 53/1/2 54/1/2 55/1/2
f 55/1/2 54/1/2 56/1/2
f 56/1/2 54/1/2 57/1/2
f 57/1/2 54/1/2 58/1/2
f 59/1/2 60/1/2 61/1/2
f 61/1/2 60/1/2 62/1/2
f 59/1/2 61/1/2 63/1/2
f 63/1/2 61/1/2 64/1/2
f 65/1/2 66/1/2 67/1/2
f 67/1/2 66/1/2 68/1/2
f 69/2/2 70/2/2 71/2/2
f 71/2/2 70/2/2 72/2/2
f 73/2/2 74/2/2 75/2/2
f 75/2/2 74/2/2 76/2/2
f 77/2/2 78/2/2 79/2/2
f 79/2/2 78/2/2 80/2/2
f 83/2/3 82/2/3 81/2/3
f 84/2/3 82/2/3 83/2/3
f 87/1/3 86/1/3 85/1/3
f 88/1/3 86/1/3 87/1/3
f 91/2/3 90/2/3 89/2/3
f 92/2/3 90/2/3 91/2/3
f 95/2/3 94/2/3 93/2/3
f 96/2/3 94/2/3 95/2/3
f 97/2/3 95/2/3 93/2/3
f 98/2/3 95/2/3 97/2/3
f 101/1/3 100/1/3 99/1/3
f 102/1/3 100/1/3 101/1/3
f 103/1/3 101/1/3 99/1/3
f 104/1/3 100/1/3 102/1/3
f 105/1/3 103/1/3 99/1/3
f 105/1/3 104/1/3 103/1/3
f 106/1/3 100/1/3 104/1/3
f 106/1/3 104/1/3 105/1/3
f 109/1/3 108/1/3 107/1/3
f 110/1/3 108/1/3 109/1/3
f 111/1/3 109/1/3 107/1/3
f 112/1/3 109/1/3 111/1/3
f 115/2/3 114/2/3 113/2/3
f 116/2/3 114/2/3 115/2/3
f 119/1/3 118/1/3 117/1/3
f 120/1/3 118/1/3 119/1/3
f 121/1/4 122/1/4 123/1/4
f 123/1/4 122/1/4 124/1/4
f 125/2/4 126/2/4 127/2/4
f 127/2/4 126/2/4 128/2/4
f 129/1/4 130/1/4 131/1/4
f 131/1/4 130/1/4 132/1/4
f 129/1/4 131/1/4 133/1/4
f 133/1/4 131/1/4 134/1/4
f 135/2/4 136/2/4 137/2/4
f 137/2/4 136/2/4 138/2/4
f 135/2/4 137/2/4 139/2/4
f 139/2/4 137/2/4 140/2/4
f 141/1/4 142/1/4 143/1/4
f 143/1/4 142/1/4 144/1/4
f 141/1/4 143/1/4 145/1/4
f 144/1/4 142/1/4 146/1/4
f 141/1/4 145/1/4 147/1/4
f 145/1/4 146/1/4 147/1/4
f 146/1/4 142/1/4 148/1/4
f 147/1/4 146/1/4 148/1/4
f 149/2/4 150/2/4 151/2/4
f 151/2/4 150/2/4 152/2/4
f 153/1/4 154/1/4 155/1/4
f 155/1/4 154/1/4 156/1/4
f 157/2/4 158/2/4 159/2/4
f 159/2/4 158/2/4 160/2/4
f 163/1/5 162/1/5 161/1/5
f 164/1/5 162/1/5 163/1/5
f 167/1/5 166/1/5 165/1/5
f 168/1/5 166/1/5 167/1/5
f 171/1/5 170/1/5 169/1/5
f 172/1/5 170/1/5 171/1/5
f 175/2/5 174/2/5 173/2/5
f 176/2/5 174/2/5 175/2/5
f 177/2/5 175/2/5 173/2/5
f 178/2/5 174/2/5 176/2/5
f 179/2/5 177/2/5 173/2/5
f 179/2/5 178/2/5 177/2/5
f 180/2/5 174/2/5 178/2/5
f 180/2/5 178/2/5 179/2/5
f 183/1/5 182/1/5 181/1/5
f 184/1/5 182/1/5 183/1/5
f 187/2/5 186/2/5 185/2/5
f 188/2/5 186/2/5 187/2/5
f 189/2/5 186/2/5 188/2/5
f 190/2/5 186/2/5 189/2/5
f 192/2/5 189/2/5 188/2/5
f 193/2/5 189/2/5 192/2/5
f 194/2/5 186/2/5 190/2/5
f 195/2/5 193/2/5 192/2/5
f 195/2/5 194/2/5 193/2/5
f 195/2/5 192/2/5 191/2/5
f 196/2/5 186/2/5 194/2/5
f 196/2/5 194/2/5 195/2/5
f 199/2/5 198/2/5 197/2/5
f 200/2/5 198/2/5 199/2/5
f 201/2/5 199/2/5 197/2/5
f 202/2/5 198/2/5 200/2/5
f 203/2/5 201/2/5 197/2/5
f 203/2/5 202/2/5 201/2/5
f 204/2/5 198/2/5 202/2/5
f 204/2/5 202/2/5 203/2/5
f 207/2/5 206/2/5 205/2/5
f 208/2/5 206/2/5 207/2/5
f 209/2/5 207/2/5 205/2/5
f 210/2/5 206/2/5 208/2/5
f 211/2/5 209/2/5 205/2/5
f 211/2/5 210/2/5 209/2/5
f 212/2/5 206/2/5 210/2/5
f 212/2/5 210/2/5 211/2/5
f 213/1/6 214/1/6 215/1/6
f 215/1/6 214/1/6 216/1/6
f 217/1/6 218/1/6 219/1/6
f 219/1/6 218/1/6 220/1/6
f 221/1/6 222/1/6 223/1/6
f 223/1/6 222/1/6 224/1/6
f 225/2/6 226/2/6 227/2/6
f 227/2/6 226/2/6 228/2/6
f 229/2/6 230/2/6 231/2/6
f 231/2/6 230/2/6 232/2/6
f 233/2/6 234/2/6 235/2/6
f 235/2/6 234/2/6 236/2/6
f 237/2/6 238/2/6 239/2/6
f 239/2/6 238/2/6 240/2/6
